  0
SECTION
  2
HEADER
  9
$ACADVER
  1
AC1012
  9
$DWGCODEPAGE
  3
ansi_1252
  9
$INSBASE
 10
0.0
 20
0.0
 30
0.0
  9
$EXTMIN
 10
1.000000000000000E+20
 20
1.000000000000000E+20
 30
1.000000000000000E+20
  9
$EXTMAX
 10
-1.000000000000000E+20
 20
-1.000000000000000E+20
 30
-1.000000000000000E+20
  9
$LIMMIN
 10
0.0
 20
0.0
  9
$LIMMAX
 10
12.0
 20
9.0
  9
$ORTHOMODE
 70
     0
  9
$REGENMODE
 70
     1
  9
$FILLMODE
 70
     1
  9
$QTEXTMODE
 70
     0
  9
$MIRRTEXT
 70
     1
  9
$DRAGMODE
 70
     2
  9
$LTSCALE
 40
1.0
  9
$OSMODE
 70
    37
  9
$ATTMODE
 70
     1
  9
$TEXTSIZE
 40
0.2
  9
$TRACEWID
 40
0.05
  9
$TEXTSTYLE
  7
STANDARD
  9
$CLAYER
  8
0
  9
$CELTYPE
  6
BYLAYER
  9
$CECOLOR
 62
   256
  9
$CELTSCALE
 40
1.0
  9
$DELOBJ
 70
     1
  9
$DISPSILH
 70
     0
  9
$DIMSCALE
 40
1.0
  9
$DIMASZ
 40
0.18
  9
$DIMEXO
 40
0.0625
  9
$DIMDLI
 40
0.38
  9
$DIMRND
 40
0.0
  9
$DIMDLE
 40
0.0
  9
$DIMEXE
 40
0.18
  9
$DIMTP
 40
0.0
  9
$DIMTM
 40
0.0
  9
$DIMTXT
 40
0.18
  9
$DIMCEN
 40
0.09
  9
$DIMTSZ
 40
0.0
  9
$DIMTOL
 70
     0
  9
$DIMLIM
 70
     0
  9
$DIMTIH
 70
     1
  9
$DIMTOH
 70
     1
  9
$DIMSE1
 70
     0
  9
$DIMSE2
 70
     0
  9
$DIMTAD
 70
     0
  9
$DIMZIN
 70
     0
  9
$DIMBLK
  1

  9
$DIMASO
 70
     1
  9
$DIMSHO
 70
     1
  9
$DIMPOST
  1

  9
$DIMAPOST
  1

  9
$DIMALT
 70
     0
  9
$DIMALTD
 70
     2
  9
$DIMALTF
 40
25.4
  9
$DIMLFAC
 40
1.0
  9
$DIMTOFL
 70
     0
  9
$DIMTVP
 40
0.0
  9
$DIMTIX
 70
     0
  9
$DIMSOXD
 70
     0
  9
$DIMSAH
 70
     0
  9
$DIMBLK1
  1

  9
$DIMBLK2
  1

  9
$DIMSTYLE
  2
STANDARD
  9
$DIMCLRD
 70
     0
  9
$DIMCLRE
 70
     0
  9
$DIMCLRT
 70
     0
  9
$DIMTFAC
 40
1.0
  9
$DIMGAP
 40
0.09
  9
$DIMJUST
 70
     0
  9
$DIMSD1
 70
     0
  9
$DIMSD2
 70
     0
  9
$DIMTOLJ
 70
     1
  9
$DIMTZIN
 70
     0
  9
$DIMALTZ
 70
     0
  9
$DIMALTTZ
 70
     0
  9
$DIMFIT
 70
     3
  9
$DIMUPT
 70
     0
  9
$DIMUNIT
 70
     2
  9
$DIMDEC
 70
     4
  9
$DIMTDEC
 70
     4
  9
$DIMALTU
 70
     2
  9
$DIMALTTD
 70
     2
  9
$DIMTXSTY
  7
STANDARD
  9
$DIMAUNIT
 70
     0
  9
$LUNITS
 70
     2
  9
$LUPREC
 70
     4
  9
$SKETCHINC
 40
0.1
  9
$FILLETRAD
 40
0.5
  9
$AUNITS
 70
     0
  9
$AUPREC
 70
     0
  9
$MENU
  1
.
  9
$ELEVATION
 40
0.0
  9
$PELEVATION
 40
0.0
  9
$THICKNESS
 40
0.0
  9
$LIMCHECK
 70
     0
  9
$CHAMFERA
 40
0.0
  9
$CHAMFERB
 40
0.0
  9
$CHAMFERC
 40
0.0
  9
$CHAMFERD
 40
0.0
  9
$SKPOLY
 70
     0
  9
$TDCREATE
 40
2457933.736625533
  9
$TDUPDATE
 40
2457933.736625567
  9
$TDINDWG
 40
0.0000000116
  9
$TDUSRTIMER
 40
0.0000000116
  9
$USRTIMER
 70
     1
  9
$ANGBASE
 50
0.0
  9
$ANGDIR
 70
     0
  9
$PDMODE
 70
     0
  9
$PDSIZE
 40
0.0
  9
$PLINEWID
 40
0.0
  9
$COORDS
 70
     1
  9
$SPLFRAME
 70
     0
  9
$SPLINETYPE
 70
     6
  9
$SPLINESEGS
 70
     8
  9
$ATTDIA
 70
     0
  9
$ATTREQ
 70
     1
  9
$HANDLING
 70
     1
  9
$HANDSEED
  5
28A
  9
$SURFTAB1
 70
     6
  9
$SURFTAB2
 70
     6
  9
$SURFTYPE
 70
     6
  9
$SURFU
 70
     6
  9
$SURFV
 70
     6
  9
$UCSNAME
  2

  9
$UCSORG
 10
0.0
 20
0.0
 30
0.0
  9
$UCSXDIR
 10
1.0
 20
0.0
 30
0.0
  9
$UCSYDIR
 10
0.0
 20
1.0
 30
0.0
  9
$PUCSNAME
  2

  9
$PUCSORG
 10
0.0
 20
0.0
 30
0.0
  9
$PUCSXDIR
 10
1.0
 20
0.0
 30
0.0
  9
$PUCSYDIR
 10
0.0
 20
1.0
 30
0.0
  9
$USERI1
 70
     0
  9
$USERI2
 70
     0
  9
$USERI3
 70
     0
  9
$USERI4
 70
     0
  9
$USERI5
 70
     0
  9
$USERR1
 40
0.0
  9
$USERR2
 40
0.0
  9
$USERR3
 40
0.0
  9
$USERR4
 40
0.0
  9
$USERR5
 40
0.0
  9
$WORLDVIEW
 70
     1
  9
$SHADEDGE
 70
     3
  9
$SHADEDIF
 70
    70
  9
$TILEMODE
 70
     1
  9
$MAXACTVP
 70
    64
  9
$PINSBASE
 10
0.0
 20
0.0
 30
0.0
  9
$PLIMCHECK
 70
     0
  9
$PEXTMIN
 10
1.000000000000000E+20
 20
1.000000000000000E+20
 30
1.000000000000000E+20
  9
$PEXTMAX
 10
-1.000000000000000E+20
 20
-1.000000000000000E+20
 30
-1.000000000000000E+20
  9
$PLIMMIN
 10
0.0
 20
0.0
  9
$PLIMMAX
 10
12.0
 20
9.0
  9
$UNITMODE
 70
     0
  9
$VISRETAIN
 70
     1
  9
$PLINEGEN
 70
     0
  9
$PSLTSCALE
 70
     1
  9
$TREEDEPTH
 70
  3020
  9
$PICKSTYLE
 70
     1
  9
$CMLSTYLE
  2
STANDARD
  9
$CMLJUST
 70
     0
  9
$CMLSCALE
 40
1.0
  9
$SAVEIMAGES
 70
     1
  0
ENDSEC
  0
SECTION
  2
CLASSES
  0
CLASS
  1
ACDBDICTIONARYWDFLT
  2
AcDbDictionaryWithDefault
  3
ObjectDBX Classes
 90
    32768
280
     0
281
     0
  0
CLASS
  1
VISUALSTYLE
  2
AcDbVisualStyle
  3
ObjectDBX Classes
 90
     4095
280
     0
281
     0
  0
CLASS
  1
MATERIAL
  2
AcDbMaterial
  3
ObjectDBX Classes
 90
     1153
280
     0
281
     0
  0
CLASS
  1
SCALE
  2
AcDbScale
  3
ObjectDBX Classes
 90
     1153
280
     0
281
     0
  0
CLASS
  1
SUN
  2
AcDbSun
  3
SCENEOE
 90
     1153
280
     0
281
     0
  0
CLASS
  1
DICTIONARYVAR
  2
AcDbDictionaryVar
  3
ObjectDBX Classes
 90
        0
280
     0
281
     0
  0
CLASS
  1
XRECORD
  2
AcDbXrecord
  3
ObjectDBX Classes
 90
    32768
280
     0
281
     0
  0
CLASS
  1
LWPOLYLINE
  2
AcDbPolyline
  3
ObjectDBX Classes
 90
    32768
280
     0
281
     1
  0
CLASS
  1
HATCH
  2
AcDbHatch
  3
ObjectDBX Classes
 90
    32768
280
     0
281
     1
  0
CLASS
  1
ACDBPLACEHOLDER
  2
AcDbPlaceHolder
  3
ObjectDBX Classes
 90
        0
280
     0
281
     0
  0
CLASS
  1
LAYOUT
  2
AcDbLayout
  3
ObjectDBX Classes
 90
        0
280
     0
281
     0
  0
ENDSEC
  0
SECTION
  2
TABLES
  0
TABLE
  2
VPORT
  5
8
330
0
100
AcDbSymbolTable
 70
     1
  0
VPORT
  5
29
330
8
100
AcDbSymbolTableRecord
100
AcDbViewportTableRecord
  2
*ACTIVE
 70
     0
 10
0.0
 20
0.0
 11
1.0
 21
1.0
 12
10.42990654205607
 22
4.5
 13
0.0
 23
0.0
 14
0.5
 24
0.5
 15
0.5
 25
0.5
 16
0.0
 26
0.0
 36
1.0
 17
0.0
 27
0.0
 37
0.0
 40
9.0
 41
1.972972972850329
 42
50.0
 43
0.0
 44
0.0
 50
0.0
 51
0.0
 71
     0
 72
   100
 73
     1
 74
     3
 75
     0
 76
     0
 77
     0
 78
     0
  0
ENDTAB
  0
TABLE
  2
LTYPE
  5
5
330
0
100
AcDbSymbolTable
 70
     1
  0
LTYPE
  5
14
330
5
100
AcDbSymbolTableRecord
100
AcDbLinetypeTableRecord
  2
BYBLOCK
 70
     0
  3

 72
    65
 73
     0
 40
0.0
  0
LTYPE
  5
15
330
5
100
AcDbSymbolTableRecord
100
AcDbLinetypeTableRecord
  2
BYLAYER
 70
     0
  3

 72
    65
 73
     0
 40
0.0
  0
LTYPE
  5
16
330
5
100
AcDbSymbolTableRecord
100
AcDbLinetypeTableRecord
  2
CONTINUOUS
 70
     0
  3
Solid line
 72
    65
 73
     0
 40
0.0
  0
ENDTAB
  0
TABLE
  2
LAYER
  5
2
330
0
100
AcDbSymbolTable
 70
     4
  0
LAYER
  5
10
330
2
100
AcDbSymbolTableRecord
100
AcDbLayerTableRecord
  2
0
 70
     0
 62
     7
  6
CONTINUOUS
  0
LAYER
  5
6A
330
2
100
AcDbSymbolTableRecord
100
AcDbLayerTableRecord
  2
LAYER_2
 70
     0
 62
     1
  6
CONTINUOUS
  0
LAYER
  5
73
330
2
100
AcDbSymbolTableRecord
100
AcDbLayerTableRecord
  2
LAYER_3
 70
     0
 62
     1
  6
CONTINUOUS
  0
LAYER
  5
7B
330
2
100
AcDbSymbolTableRecord
100
AcDbLayerTableRecord
  2
ELECTRODES
 70
     0
 62
     1
  6
CONTINUOUS
  0
ENDTAB
  0
TABLE
  2
STYLE
  5
3
330
0
100
AcDbSymbolTable
 70
     1
  0
STYLE
  5
11
330
3
100
AcDbSymbolTableRecord
100
AcDbTextStyleTableRecord
  2
STANDARD
 70
     0
 40
0.0
 41
1.0
 50
0.0
 71
     0
 42
0.2
  3
txt
  4

  0
ENDTAB
  0
TABLE
  2
VIEW
  5
6
330
0
100
AcDbSymbolTable
 70
     0
  0
ENDTAB
  0
TABLE
  2
UCS
  5
7
330
0
100
AcDbSymbolTable
 70
     0
  0
ENDTAB
  0
TABLE
  2
APPID
  5
9
330
0
100
AcDbSymbolTable
 70
     1
  0
APPID
  5
12
330
9
100
AcDbSymbolTableRecord
100
AcDbRegAppTableRecord
  2
ACAD
 70
     0
  0
ENDTAB
  0
TABLE
  2
DIMSTYLE
  5
A
330
0
100
AcDbSymbolTable
 70
     1
  0
DIMSTYLE
105
27
330
A
100
AcDbSymbolTableRecord
100
AcDbDimStyleTableRecord
  2
STANDARD
 70
     0
  3

  4

  5

  6

  7

 40
1.0
 41
0.18
 42
0.0625
 43
0.38
 44
0.18
 45
0.0
 46
0.0
 47
0.0
 48
0.0
140
0.18
141
0.09
142
0.0
143
25.4
144
1.0
145
0.0
146
1.0
147
0.09
 71
     0
 72
     0
 73
     1
 74
     1
 75
     0
 76
     0
 77
     0
 78
     0
170
     0
171
     2
172
     0
173
     0
174
     0
175
     0
176
     0
177
     0
178
     0
270
     2
271
     4
272
     4
273
     2
274
     2
340
11
275
     0
280
     0
281
     0
282
     0
283
     1
284
     0
285
     0
286
     0
287
     3
288
     0
  0
ENDTAB
  0
TABLE
  2
BLOCK_RECORD
  5
1
330
0
100
AcDbSymbolTable
 70
     1
  0
BLOCK_RECORD
  5
1F
330
1
100
AcDbSymbolTableRecord
100
AcDbBlockTableRecord
  2
*MODEL_SPACE
  0
BLOCK_RECORD
  5
1B
330
1
100
AcDbSymbolTableRecord
100
AcDbBlockTableRecord
  2
*PAPER_SPACE
  0
ENDTAB
  0
ENDSEC
  0
SECTION
  2
BLOCKS
  0
BLOCK
  5
20
330
1F
100
AcDbEntity
  8
0
100
AcDbBlockBegin
  2
*MODEL_SPACE
 70
     0
 10
0.0
 20
0.0
 30
0.0
  3
*MODEL_SPACE
  1

  0
ENDBLK
  5
21
330
1F
100
AcDbEntity
  8
0
100
AcDbBlockEnd
  0
BLOCK
  5
1C
330
1B
100
AcDbEntity
 67
     1
  8
0
100
AcDbBlockBegin
  2
*PAPER_SPACE
 70
     0
 10
0.0
 20
0.0
 30
0.0
  3
*PAPER_SPACE
  1

  0
ENDBLK
  5
1D
330
1B
100
AcDbEntity
 67
     1
  8
0
100
AcDbBlockEnd
  0
ENDSEC
  0
SECTION
  2
ENTITIES
  0
POLYLINE
  5
6B
330
1F
100
AcDbEntity
  8
LAYER_2
100
AcDb2dPolyline
 66
     1
 10
0.0
 20
0.0
 30
0.0
  0
VERTEX
  5
6C
330
6B
100
AcDbEntity
  8
0
100
AcDbVertex
100
AcDb2dVertex
 10
20.0
 20
0.0
 30
0.0
  0
VERTEX
  5
6D
330
6B
100
AcDbEntity
  8
0
100
AcDbVertex
100
AcDb2dVertex
 10
1.5
 20
0.0
 30
0.0
  0
SEQEND
  5
6E
330
6B
100
AcDbEntity
  8
LAYER_2
  0
POLYLINE
  5
6F
330
1F
100
AcDbEntity
  8
LAYER_2
100
AcDb2dPolyline
 66
     1
 10
0.0
 20
0.0
 30
0.0
  0
VERTEX
  5
70
330
6F
100
AcDbEntity
  8
0
100
AcDbVertex
100
AcDb2dVertex
 10
20.0
 20
0.0000000000000006
 30
0.0
  0
VERTEX
  5
71
330
6F
100
AcDbEntity
  8
0
100
AcDbVertex
100
AcDb2dVertex
 10
1.5
 20
0.0000000000000134
 30
0.0
  0
SEQEND
  5
72
330
6F
100
AcDbEntity
  8
LAYER_2
  0
POLYLINE
  5
74
330
1F
100
AcDbEntity
  8
LAYER_3
100
AcDb2dPolyline
 66
     1
 10
0.0
 20
0.0
 30
0.0
 70
     1
  0
VERTEX
  5
75
330
74
100
AcDbEntity
  8
0
100
AcDbVertex
100
AcDb2dVertex
 10
20.0
 20
-10.0
 30
0.0
  0
VERTEX
  5
76
330
74
100
AcDbEntity
  8
0
100
AcDbVertex
100
AcDb2dVertex
 10
20.0
 20
0.0
 30
0.0
  0
VERTEX
  5
77
330
74
100
AcDbEntity
  8
0
100
AcDbVertex
100
AcDb2dVertex
 10
-20.0
 20
0.0
 30
0.0
  0
VERTEX
  5
78
330
74
100
AcDbEntity
  8
0
100
AcDbVertex
100
AcDb2dVertex
 10
-20.0
 20
-10.0
 30
0.0
  0
VERTEX
  5
79
330
74
100
AcDbEntity
  8
0
100
AcDbVertex
100
AcDb2dVertex
 10
20.0
 20
-10.0
 30
0.0
  0
SEQEND
  5
7A
330
74
100
AcDbEntity
  8
LAYER_3
  0
POLYLINE
  5
7C
330
1F
100
AcDbEntity
  8
ELECTRODES
100
AcDb2dPolyline
 66
     1
 10
0.0
 20
0.0
 30
0.0
 70
     1
  0
VERTEX
  5
7D
330
7C
100
AcDbEntity
  8
0
100
AcDbVertex
100
AcDb2dVertex
 10
1.0
 20
-0.8999999999999999
 30
0.0
  0
VERTEX
  5
7E
330
7C
100
AcDbEntity
  8
0
100
AcDbVertex
100
AcDb2dVertex
 10
2.0
 20
-0.8999999999999999
 30
0.0
  0
VERTEX
  5
7F
330
7C
100
AcDbEntity
  8
0
100
AcDbVertex
100
AcDb2dVertex
 10
2.000000000000001
 20
-1.25
 30
0.0
  0
VERTEX
  5
80
330
7C
100
AcDbEntity
  8
0
100
AcDbVertex
100
AcDb2dVertex
 10
19.0
 20
-1.250000000000001
 30
0.0
  0
VERTEX
  5
81
330
7C
100
AcDbEntity
  8
0
100
AcDbVertex
100
AcDb2dVertex
 10
19.0
 20
-0.3500000000000012
 30
0.0
  0
VERTEX
  5
82
330
7C
100
AcDbEntity
  8
0
100
AcDbVertex
100
AcDb2dVertex
 10
0.2740014901583503
 20
-0.35
 30
0.0
  0
VERTEX
  5
83
330
7C
100
AcDbEntity
  8
0
100
AcDbVertex
100
AcDb2dVertex
 10
0.2602545575778941
 20
-0.6270808584837123
 30
0.0
  0
VERTEX
  5
84
330
7C
100
AcDbEntity
  8
0
100
AcDbVertex
100
AcDb2dVertex
 10
0.2389665500670073
 20
-0.8859915693040183
 30
0.0
  0
VERTEX
  5
85
330
7C
100
AcDbEntity
  8
0
100
AcDbVertex
100
AcDb2dVertex
 10
0.2256793165499119
 20
-1.006262058970217
 30
0.0
  0
VERTEX
  5
86
330
7C
100
AcDbEntity
  8
0
100
AcDbVertex
100
AcDb2dVertex
 10
0.2107543039310873
 20
-1.119229996518487
 30
0.0
  0
VERTEX
  5
87
330
7C
100
AcDbEntity
  8
0
100
AcDbVertex
100
AcDb2dVertex
 10
0.1942998246342587
 20
-1.224075561461463
 30
0.0
  0
VERTEX
  5
88
330
7C
100
AcDbEntity
  8
0
100
AcDbVertex
100
AcDb2dVertex
 10
0.176435290587529
 20
-1.320037878244408
 30
0.0
  0
VERTEX
  5
89
330
7C
100
AcDbEntity
  8
0
100
AcDbVertex
100
AcDb2dVertex
 10
0.1572903466381584
 20
-1.406420538001047
 30
0.0
  0
VERTEX
  5
8A
330
7C
100
AcDbEntity
  8
0
100
AcDbVertex
100
AcDb2dVertex
 10
0.1370039297059468
 20
-1.482596652467695
 30
0.0
  0
VERTEX
  5
8B
330
7C
100
AcDbEntity
  8
0
100
AcDbVertex
100
AcDb2dVertex
 10
0.1157232605030468
 20
-1.548013403378896
 30
0.0
  0
VERTEX
  5
8C
330
7C
100
AcDbEntity
  8
0
100
AcDbVertex
100
AcDb2dVertex
 10
0.0936027751374019
 20
-1.602196054329103
 30
0.0
  0
VERTEX
  5
8D
330
7C
100
AcDbEntity
  8
0
100
AcDbVertex
100
AcDb2dVertex
 10
0.0708030043532814
 20
-1.644751395985891
 30
0.0
  0
VERTEX
  5
8E
330
7C
100
AcDbEntity
  8
0
100
AcDbVertex
100
AcDb2dVertex
 10
0.0474894085423831
 20
-1.675370599652428
 30
0.0
  0
VERTEX
  5
8F
330
7C
100
AcDbEntity
  8
0
100
AcDbVertex
100
AcDb2dVertex
 10
0.0238311769799537
 20
-1.693831458470577
 30
0.0
  0
VERTEX
  5
90
330
7C
100
AcDbEntity
  8
0
100
AcDbVertex
100
AcDb2dVertex
 10
-0.0000000000000002
 20
-1.7
 30
0.0
  0
VERTEX
  5
91
330
7C
100
AcDbEntity
  8
0
100
AcDbVertex
100
AcDb2dVertex
 10
-0.0238311769799541
 20
-1.693831458470577
 30
0.0
  0
VERTEX
  5
92
330
7C
100
AcDbEntity
  8
0
100
AcDbVertex
100
AcDb2dVertex
 10
-0.0474894085423835
 20
-1.675370599652428
 30
0.0
  0
VERTEX
  5
93
330
7C
100
AcDbEntity
  8
0
100
AcDbVertex
100
AcDb2dVertex
 10
-0.0708030043532818
 20
-1.644751395985891
 30
0.0
  0
VERTEX
  5
94
330
7C
100
AcDbEntity
  8
0
100
AcDbVertex
100
AcDb2dVertex
 10
-0.0936027751374023
 20
-1.602196054329103
 30
0.0
  0
VERTEX
  5
95
330
7C
100
AcDbEntity
  8
0
100
AcDbVertex
100
AcDb2dVertex
 10
-0.1157232605030472
 20
-1.548013403378895
 30
0.0
  0
VERTEX
  5
96
330
7C
100
AcDbEntity
  8
0
100
AcDbVertex
100
AcDb2dVertex
 10
-0.1370039297059472
 20
-1.482596652467694
 30
0.0
  0
VERTEX
  5
97
330
7C
100
AcDbEntity
  8
0
100
AcDbVertex
100
AcDb2dVertex
 10
-0.1572903466381587
 20
-1.406420538001046
 30
0.0
  0
VERTEX
  5
98
330
7C
100
AcDbEntity
  8
0
100
AcDbVertex
100
AcDb2dVertex
 10
-0.1764352905875294
 20
-1.320037878244408
 30
0.0
  0
VERTEX
  5
99
330
7C
100
AcDbEntity
  8
0
100
AcDbVertex
100
AcDb2dVertex
 10
-0.194299824634259
 20
-1.224075561461462
 30
0.0
  0
VERTEX
  5
9A
330
7C
100
AcDbEntity
  8
0
100
AcDbVertex
100
AcDb2dVertex
 10
-0.2107543039310875
 20
-1.119229996518486
 30
0.0
  0
VERTEX
  5
9B
330
7C
100
AcDbEntity
  8
0
100
AcDbVertex
100
AcDb2dVertex
 10
-0.2256793165499122
 20
-1.006262058970216
 30
0.0
  0
VERTEX
  5
9C
330
7C
100
AcDbEntity
  8
0
100
AcDbVertex
100
AcDb2dVertex
 10
-0.2389665500670076
 20
-0.8859915693040172
 30
0.0
  0
VERTEX
  5
9D
330
7C
100
AcDbEntity
  8
0
100
AcDbVertex
100
AcDb2dVertex
 10
-0.2602545575778943
 20
-0.6270808584837111
 30
0.0
  0
VERTEX
  5
9E
330
7C
100
AcDbEntity
  8
0
100
AcDbVertex
100
AcDb2dVertex
 10
-0.2740014901583503
 20
-0.35
 30
0.0
  0
VERTEX
  5
9F
330
7C
100
AcDbEntity
  8
0
100
AcDbVertex
100
AcDb2dVertex
 10
-1.75
 20
-0.3499999999999999
 30
0.0
  0
VERTEX
  5
A0
330
7C
100
AcDbEntity
  8
0
100
AcDbVertex
100
AcDb2dVertex
 10
-1.75
 20
-0.8999999999999998
 30
0.0
  0
VERTEX
  5
A1
330
7C
100
AcDbEntity
  8
0
100
AcDbVertex
100
AcDb2dVertex
 10
-1.0
 20
-0.8999999999999997
 30
0.0
  0
VERTEX
  5
A2
330
7C
100
AcDbEntity
  8
0
100
AcDbVertex
100
AcDb2dVertex
 10
-1.0
 20
-1.25
 30
0.0
  0
VERTEX
  5
A3
330
7C
100
AcDbEntity
  8
0
100
AcDbVertex
100
AcDb2dVertex
 10
-0.4453617714151233
 20
-1.25
 30
0.0
  0
VERTEX
  5
A4
330
7C
100
AcDbEntity
  8
0
100
AcDbVertex
100
AcDb2dVertex
 10
-0.41004482807783
 20
-1.573646395712945
 30
0.0
  0
VERTEX
  5
A5
330
7C
100
AcDbEntity
  8
0
100
AcDbVertex
100
AcDb2dVertex
 10
-0.3894419543578187
 20
-1.724712343153307
 30
0.0
  0
VERTEX
  5
A6
330
7C
100
AcDbEntity
  8
0
100
AcDbVertex
100
AcDb2dVertex
 10
-0.367002645293638
 20
-1.867645312957209
 30
0.0
  0
VERTEX
  5
A7
330
7C
100
AcDbEntity
  8
0
100
AcDbVertex
100
AcDb2dVertex
 10
-0.342832714703761
 20
-2.001771296701424
 30
0.0
  0
VERTEX
  5
A8
330
7C
100
AcDbEntity
  8
0
100
AcDbVertex
100
AcDb2dVertex
 10
-0.3170461372493786
 20
-2.126457815798672
 30
0.0
  0
VERTEX
  5
A9
330
7C
100
AcDbEntity
  8
0
100
AcDbVertex
100
AcDb2dVertex
 10
-0.2897645109805016
 20
-2.241116903985819
 30
0.0
  0
VERTEX
  5
AA
330
7C
100
AcDbEntity
  8
0
100
AcDbVertex
100
AcDb2dVertex
 10
-0.261116483933547
 20
-2.345207879911714
 30
0.0
  0
VERTEX
  5
AB
330
7C
100
AcDbEntity
  8
0
100
AcDbVertex
100
AcDb2dVertex
 10
-0.2312371474843182
 20
-2.438239896750379
 30
0.0
  0
VERTEX
  5
AC
330
7C
100
AcDbEntity
  8
0
100
AcDbVertex
100
AcDb2dVertex
 10
-0.2002673993170576
 20
-2.519774256816702
 30
0.0
  0
VERTEX
  5
AD
330
7C
100
AcDbEntity
  8
0
100
AcDbVertex
100
AcDb2dVertex
 10
-0.1683532790135253
 20
-2.58942648026994
 30
0.0
  0
VERTEX
  5
AE
330
7C
100
AcDbEntity
  8
0
100
AcDbVertex
100
AcDb2dVertex
 10
-0.1356452793951741
 20
-2.64686811814994
 30
0.0
  0
VERTEX
  5
AF
330
7C
100
AcDbEntity
  8
0
100
AcDbVertex
100
AcDb2dVertex
 10
-0.1022976368658228
 20
-2.691828301196598
 30
0.0
  0
VERTEX
  5
B0
330
7C
100
AcDbEntity
  8
0
100
AcDbVertex
100
AcDb2dVertex
 10
-0.0684676041012563
 20
-2.724095017149028
 30
0.0
  0
VERTEX
  5
B1
330
7C
100
AcDbEntity
  8
0
100
AcDbVertex
100
AcDb2dVertex
 10
-0.0343147085154268
 20
-2.743516110501251
 30
0.0
  0
VERTEX
  5
B2
330
7C
100
AcDbEntity
  8
0
100
AcDbVertex
100
AcDb2dVertex
 10
-0.0000000000000002
 20
-2.75
 30
0.0
  0
VERTEX
  5
B3
330
7C
100
AcDbEntity
  8
0
100
AcDbVertex
100
AcDb2dVertex
 10
0.0343147085154264
 20
-2.743516110501251
 30
0.0
  0
VERTEX
  5
B4
330
7C
100
AcDbEntity
  8
0
100
AcDbVertex
100
AcDb2dVertex
 10
0.0684676041012559
 20
-2.724095017149028
 30
0.0
  0
VERTEX
  5
B5
330
7C
100
AcDbEntity
  8
0
100
AcDbVertex
100
AcDb2dVertex
 10
0.1022976368658223
 20
-2.691828301196598
 30
0.0
  0
VERTEX
  5
B6
330
7C
100
AcDbEntity
  8
0
100
AcDbVertex
100
AcDb2dVertex
 10
0.1356452793951736
 20
-2.64686811814994
 30
0.0
  0
VERTEX
  5
B7
330
7C
100
AcDbEntity
  8
0
100
AcDbVertex
100
AcDb2dVertex
 10
0.1683532790135249
 20
-2.589426480269941
 30
0.0
  0
VERTEX
  5
B8
330
7C
100
AcDbEntity
  8
0
100
AcDbVertex
100
AcDb2dVertex
 10
0.2002673993170572
 20
-2.519774256816702
 30
0.0
  0
VERTEX
  5
B9
330
7C
100
AcDbEntity
  8
0
100
AcDbVertex
100
AcDb2dVertex
 10
0.2312371474843179
 20
-2.43823989675038
 30
0.0
  0
VERTEX
  5
BA
330
7C
100
AcDbEntity
  8
0
100
AcDbVertex
100
AcDb2dVertex
 10
0.2611164839335465
 20
-2.345207879911714
 30
0.0
  0
VERTEX
  5
BB
330
7C
100
AcDbEntity
  8
0
100
AcDbVertex
100
AcDb2dVertex
 10
0.2897645109805013
 20
-2.241116903985819
 30
0.0
  0
VERTEX
  5
BC
330
7C
100
AcDbEntity
  8
0
100
AcDbVertex
100
AcDb2dVertex
 10
0.3170461372493782
 20
-2.126457815798672
 30
0.0
  0
VERTEX
  5
BD
330
7C
100
AcDbEntity
  8
0
100
AcDbVertex
100
AcDb2dVertex
 10
0.3428327147037606
 20
-2.001771296701425
 30
0.0
  0
VERTEX
  5
BE
330
7C
100
AcDbEntity
  8
0
100
AcDbVertex
100
AcDb2dVertex
 10
0.3670026452936377
 20
-1.86764531295721
 30
0.0
  0
VERTEX
  5
BF
330
7C
100
AcDbEntity
  8
0
100
AcDbVertex
100
AcDb2dVertex
 10
0.3894419543578184
 20
-1.724712343153307
 30
0.0
  0
VERTEX
  5
C0
330
7C
100
AcDbEntity
  8
0
100
AcDbVertex
100
AcDb2dVertex
 10
0.4100448280778296
 20
-1.573646395712946
 30
0.0
  0
VERTEX
  5
C1
330
7C
100
AcDbEntity
  8
0
100
AcDbVertex
100
AcDb2dVertex
 10
0.4453617714151232
 20
-1.25
 30
0.0
  0
VERTEX
  5
C2
330
7C
100
AcDbEntity
  8
0
100
AcDbVertex
100
AcDb2dVertex
 10
1.0
 20
-1.25
 30
0.0
  0
VERTEX
  5
C3
330
7C
100
AcDbEntity
  8
0
100
AcDbVertex
100
AcDb2dVertex
 10
1.0
 20
-0.8999999999999999
 30
0.0
  0
SEQEND
  5
C4
330
7C
100
AcDbEntity
  8
ELECTRODES
  0
POLYLINE
  5
C5
330
1F
100
AcDbEntity
  8
ELECTRODES
100
AcDb2dPolyline
 66
     1
 10
0.0
 20
0.0
 30
0.0
 70
     1
  0
VERTEX
  5
C6
330
C5
100
AcDbEntity
  8
0
100
AcDbVertex
100
AcDb2dVertex
 10
-0.6744138079658514
 20
-1.75
 30
0.0
  0
VERTEX
  5
C7
330
C5
100
AcDbEntity
  8
0
100
AcDbVertex
100
AcDb2dVertex
 10
-1.0
 20
-1.75
 30
0.0
  0
VERTEX
  5
C8
330
C5
100
AcDbEntity
  8
0
100
AcDbVertex
100
AcDb2dVertex
 10
-1.000000000000001
 20
-10.0
 30
0.0
  0
VERTEX
  5
C9
330
C5
100
AcDbEntity
  8
0
100
AcDbVertex
100
AcDb2dVertex
 10
0.9999999999999996
 20
-10.0
 30
0.0
  0
VERTEX
  5
CA
330
C5
100
AcDbEntity
  8
0
100
AcDbVertex
100
AcDb2dVertex
 10
1.0
 20
-1.75
 30
0.0
  0
VERTEX
  5
CB
330
C5
100
AcDbEntity
  8
0
100
AcDbVertex
100
AcDb2dVertex
 10
0.6744138079658512
 20
-1.75
 30
0.0
  0
VERTEX
  5
CC
330
C5
100
AcDbEntity
  8
0
100
AcDbVertex
100
AcDb2dVertex
 10
0.6221335540888977
 20
-2.233959098015085
 30
0.0
  0
VERTEX
  5
CD
330
C5
100
AcDbEntity
  8
0
100
AcDbVertex
100
AcDb2dVertex
 10
0.5913714245153892
 20
-2.460163467835683
 30
0.0
  0
VERTEX
  5
CE
330
C5
100
AcDbEntity
  8
0
100
AcDbVertex
100
AcDb2dVertex
 10
0.5577231939400188
 20
-2.674361372759736
 30
0.0
  0
VERTEX
  5
CF
330
C5
100
AcDbEntity
  8
0
100
AcDbVertex
100
AcDb2dVertex
 10
0.5213530775885291
 20
-2.875507451509424
 30
0.0
  0
VERTEX
  5
D0
330
C5
100
AcDbEntity
  8
0
100
AcDbVertex
100
AcDb2dVertex
 10
0.4824385744486779
 20
-3.062620040319243
 30
0.0
  0
VERTEX
  5
D1
330
C5
100
AcDbEntity
  8
0
100
AcDbVertex
100
AcDb2dVertex
 10
0.4411696010126095
 20
-3.23478596380121
 30
0.0
  0
VERTEX
  5
D2
330
C5
100
AcDbEntity
  8
0
100
AcDbVertex
100
AcDb2dVertex
 10
0.3977475644174328
 20
-3.391164991562634
 30
0.0
  0
VERTEX
  5
D3
330
C5
100
AcDbEntity
  8
0
100
AcDbVertex
100
AcDb2dVertex
 10
0.3523843795073982
 20
-3.530993938826598
 30
0.0
  0
VERTEX
  5
D4
330
C5
100
AcDbEntity
  8
0
100
AcDbVertex
100
AcDb2dVertex
 10
0.3053014346147606
 20
-3.653590391042689
 30
0.0
  0
VERTEX
  5
D5
330
C5
100
AcDbEntity
  8
0
100
AcDbVertex
100
AcDb2dVertex
 10
0.2567285111066809
 20
-3.758356034310545
 30
0.0
  0
VERTEX
  5
D6
330
C5
100
AcDbEntity
  8
0
100
AcDbVertex
100
AcDb2dVertex
 10
0.2069026619711603
 20
-3.844779575362581
 30
0.0
  0
VERTEX
  5
D7
330
C5
100
AcDbEntity
  8
0
100
AcDbVertex
100
AcDb2dVertex
 10
0.1560670549149012
 20
-3.912439236855364
 30
0.0
  0
VERTEX
  5
D8
330
C5
100
AcDbEntity
  8
0
100
AcDbVertex
100
AcDb2dVertex
 10
0.1044697856191851
 20
-3.961004815791715
 30
0.0
  0
VERTEX
  5
D9
330
C5
100
AcDbEntity
  8
0
100
AcDbVertex
100
AcDb2dVertex
 10
0.0523626669454966
 20
-3.990239295027734
 30
0.0
  0
VERTEX
  5
DA
330
C5
100
AcDbEntity
  8
0
100
AcDbVertex
100
AcDb2dVertex
 10
-0.0000000000000002
 20
-4.0
 30
0.0
  0
VERTEX
  5
DB
330
C5
100
AcDbEntity
  8
0
100
AcDbVertex
100
AcDb2dVertex
 10
-0.0523626669454969
 20
-3.990239295027735
 30
0.0
  0
VERTEX
  5
DC
330
C5
100
AcDbEntity
  8
0
100
AcDbVertex
100
AcDb2dVertex
 10
-0.1044697856191854
 20
-3.961004815791715
 30
0.0
  0
VERTEX
  5
DD
330
C5
100
AcDbEntity
  8
0
100
AcDbVertex
100
AcDb2dVertex
 10
-0.1560670549149015
 20
-3.912439236855364
 30
0.0
  0
VERTEX
  5
DE
330
C5
100
AcDbEntity
  8
0
100
AcDbVertex
100
AcDb2dVertex
 10
-0.2069026619711606
 20
-3.844779575362581
 30
0.0
  0
VERTEX
  5
DF
330
C5
100
AcDbEntity
  8
0
100
AcDbVertex
100
AcDb2dVertex
 10
-0.2567285111066812
 20
-3.758356034310545
 30
0.0
  0
VERTEX
  5
E0
330
C5
100
AcDbEntity
  8
0
100
AcDbVertex
100
AcDb2dVertex
 10
-0.3053014346147608
 20
-3.653590391042689
 30
0.0
  0
VERTEX
  5
E1
330
C5
100
AcDbEntity
  8
0
100
AcDbVertex
100
AcDb2dVertex
 10
-0.3523843795073985
 20
-3.530993938826598
 30
0.0
  0
VERTEX
  5
E2
330
C5
100
AcDbEntity
  8
0
100
AcDbVertex
100
AcDb2dVertex
 10
-0.3977475644174331
 20
-3.391164991562635
 30
0.0
  0
VERTEX
  5
E3
330
C5
100
AcDbEntity
  8
0
100
AcDbVertex
100
AcDb2dVertex
 10
-0.4411696010126098
 20
-3.234785963801211
 30
0.0
  0
VERTEX
  5
E4
330
C5
100
AcDbEntity
  8
0
100
AcDbVertex
100
AcDb2dVertex
 10
-0.4824385744486781
 20
-3.062620040319244
 30
0.0
  0
VERTEX
  5
E5
330
C5
100
AcDbEntity
  8
0
100
AcDbVertex
100
AcDb2dVertex
 10
-0.5213530775885294
 20
-2.875507451509424
 30
0.0
  0
VERTEX
  5
E6
330
C5
100
AcDbEntity
  8
0
100
AcDbVertex
100
AcDb2dVertex
 10
-0.5577231939400189
 20
-2.674361372759737
 30
0.0
  0
VERTEX
  5
E7
330
C5
100
AcDbEntity
  8
0
100
AcDbVertex
100
AcDb2dVertex
 10
-0.5913714245153888
 20
-2.460163467835686
 30
0.0
  0
VERTEX
  5
E8
330
C5
100
AcDbEntity
  8
0
100
AcDbVertex
100
AcDb2dVertex
 10
-0.6221335540888978
 20
-2.233959098015088
 30
0.0
  0
VERTEX
  5
E9
330
C5
100
AcDbEntity
  8
0
100
AcDbVertex
100
AcDb2dVertex
 10
-0.6744138079658514
 20
-1.75
 30
0.0
  0
SEQEND
  5
EA
330
C5
100
AcDbEntity
  8
ELECTRODES
  0
POLYLINE
  5
EB
330
1F
100
AcDbEntity
  8
ELECTRODES
100
AcDb2dPolyline
 66
     1
 10
0.0
 20
0.0
 30
0.0
 70
     1
  0
VERTEX
  5
EC
330
EB
100
AcDbEntity
  8
0
100
AcDbVertex
100
AcDb2dVertex
 10
-1.25
 20
-1.25
 30
0.0
  0
VERTEX
  5
ED
330
EB
100
AcDbEntity
  8
0
100
AcDbVertex
100
AcDb2dVertex
 10
-1.75
 20
-1.25
 30
0.0
  0
VERTEX
  5
EE
330
EB
100
AcDbEntity
  8
0
100
AcDbVertex
100
AcDb2dVertex
 10
-1.750000000000001
 20
-10.0
 30
0.0
  0
VERTEX
  5
EF
330
EB
100
AcDbEntity
  8
0
100
AcDbVertex
100
AcDb2dVertex
 10
-1.250000000000001
 20
-10.0
 30
0.0
  0
VERTEX
  5
F0
330
EB
100
AcDbEntity
  8
0
100
AcDbVertex
100
AcDb2dVertex
 10
-1.25
 20
-1.25
 30
0.0
  0
SEQEND
  5
F1
330
EB
100
AcDbEntity
  8
ELECTRODES
  0
POLYLINE
  5
F2
330
1F
100
AcDbEntity
  8
ELECTRODES
100
AcDb2dPolyline
 66
     1
 10
0.0
 20
0.0
 30
0.0
 70
     1
  0
VERTEX
  5
F3
330
F2
100
AcDbEntity
  8
0
100
AcDbVertex
100
AcDb2dVertex
 10
19.0
 20
0.0
 30
0.0
  0
VERTEX
  5
F4
330
F2
100
AcDbEntity
  8
0
100
AcDbVertex
100
AcDb2dVertex
 10
19.0
 20
-0.3500000000000012
 30
0.0
  0
VERTEX
  5
F5
330
F2
100
AcDbEntity
  8
0
100
AcDbVertex
100
AcDb2dVertex
 10
0.2740014901583503
 20
-0.35
 30
0.0
  0
VERTEX
  5
F6
330
F2
100
AcDbEntity
  8
0
100
AcDbVertex
100
AcDb2dVertex
 10
0.2602545575778942
 20
-0.6270808584837108
 30
0.0
  0
VERTEX
  5
F7
330
F2
100
AcDbEntity
  8
0
100
AcDbVertex
100
AcDb2dVertex
 10
0.2389665500670075
 20
-0.8859915693040168
 30
0.0
  0
VERTEX
  5
F8
330
F2
100
AcDbEntity
  8
0
100
AcDbVertex
100
AcDb2dVertex
 10
0.2256793165499121
 20
-1.006262058970216
 30
0.0
  0
VERTEX
  5
F9
330
F2
100
AcDbEntity
  8
0
100
AcDbVertex
100
AcDb2dVertex
 10
0.2107543039310875
 20
-1.119229996518486
 30
0.0
  0
VERTEX
  5
FA
330
F2
100
AcDbEntity
  8
0
100
AcDbVertex
100
AcDb2dVertex
 10
0.1942998246342588
 20
-1.224075561461462
 30
0.0
  0
VERTEX
  5
FB
330
F2
100
AcDbEntity
  8
0
100
AcDbVertex
100
AcDb2dVertex
 10
0.1764352905875291
 20
-1.320037878244408
 30
0.0
  0
VERTEX
  5
FC
330
F2
100
AcDbEntity
  8
0
100
AcDbVertex
100
AcDb2dVertex
 10
0.1572903466381584
 20
-1.406420538001047
 30
0.0
  0
VERTEX
  5
FD
330
F2
100
AcDbEntity
  8
0
100
AcDbVertex
100
AcDb2dVertex
 10
0.1370039297059468
 20
-1.482596652467695
 30
0.0
  0
VERTEX
  5
FE
330
F2
100
AcDbEntity
  8
0
100
AcDbVertex
100
AcDb2dVertex
 10
0.1157232605030468
 20
-1.548013403378896
 30
0.0
  0
VERTEX
  5
FF
330
F2
100
AcDbEntity
  8
0
100
AcDbVertex
100
AcDb2dVertex
 10
0.0936027751374019
 20
-1.602196054329103
 30
0.0
  0
VERTEX
  5
100
330
F2
100
AcDbEntity
  8
0
100
AcDbVertex
100
AcDb2dVertex
 10
0.0708030043532814
 20
-1.644751395985891
 30
0.0
  0
VERTEX
  5
101
330
F2
100
AcDbEntity
  8
0
100
AcDbVertex
100
AcDb2dVertex
 10
0.0474894085423831
 20
-1.675370599652428
 30
0.0
  0
VERTEX
  5
102
330
F2
100
AcDbEntity
  8
0
100
AcDbVertex
100
AcDb2dVertex
 10
0.0238311769799538
 20
-1.693831458470577
 30
0.0
  0
VERTEX
  5
103
330
F2
100
AcDbEntity
  8
0
100
AcDbVertex
100
AcDb2dVertex
 10
-0.0000000000000001
 20
-1.7
 30
0.0
  0
VERTEX
  5
104
330
F2
100
AcDbEntity
  8
0
100
AcDbVertex
100
AcDb2dVertex
 10
-0.0238311769799539
 20
-1.693831458470577
 30
0.0
  0
VERTEX
  5
105
330
F2
100
AcDbEntity
  8
0
100
AcDbVertex
100
AcDb2dVertex
 10
-0.0474894085423832
 20
-1.675370599652428
 30
0.0
  0
VERTEX
  5
106
330
F2
100
AcDbEntity
  8
0
100
AcDbVertex
100
AcDb2dVertex
 10
-0.0708030043532815
 20
-1.644751395985891
 30
0.0
  0
VERTEX
  5
107
330
F2
100
AcDbEntity
  8
0
100
AcDbVertex
100
AcDb2dVertex
 10
-0.093602775137402
 20
-1.602196054329103
 30
0.0
  0
VERTEX
  5
108
330
F2
100
AcDbEntity
  8
0
100
AcDbVertex
100
AcDb2dVertex
 10
-0.1157232605030469
 20
-1.548013403378896
 30
0.0
  0
VERTEX
  5
109
330
F2
100
AcDbEntity
  8
0
100
AcDbVertex
100
AcDb2dVertex
 10
-0.1370039297059469
 20
-1.482596652467695
 30
0.0
  0
VERTEX
  5
10A
330
F2
100
AcDbEntity
  8
0
100
AcDbVertex
100
AcDb2dVertex
 10
-0.1572903466381585
 20
-1.406420538001047
 30
0.0
  0
VERTEX
  5
10B
330
F2
100
AcDbEntity
  8
0
100
AcDbVertex
100
AcDb2dVertex
 10
-0.1764352905875292
 20
-1.320037878244408
 30
0.0
  0
VERTEX
  5
10C
330
F2
100
AcDbEntity
  8
0
100
AcDbVertex
100
AcDb2dVertex
 10
-0.1942998246342589
 20
-1.224075561461463
 30
0.0
  0
VERTEX
  5
10D
330
F2
100
AcDbEntity
  8
0
100
AcDbVertex
100
AcDb2dVertex
 10
-0.2107543039310875
 20
-1.119229996518486
 30
0.0
  0
VERTEX
  5
10E
330
F2
100
AcDbEntity
  8
0
100
AcDbVertex
100
AcDb2dVertex
 10
-0.2256793165499122
 20
-1.006262058970216
 30
0.0
  0
VERTEX
  5
10F
330
F2
100
AcDbEntity
  8
0
100
AcDbVertex
100
AcDb2dVertex
 10
-0.2389665500670076
 20
-0.8859915693040172
 30
0.0
  0
VERTEX
  5
110
330
F2
100
AcDbEntity
  8
0
100
AcDbVertex
100
AcDb2dVertex
 10
-0.2602545575778943
 20
-0.6270808584837111
 30
0.0
  0
VERTEX
  5
111
330
F2
100
AcDbEntity
  8
0
100
AcDbVertex
100
AcDb2dVertex
 10
-0.2740014901583503
 20
-0.35
 30
0.0
  0
VERTEX
  5
112
330
F2
100
AcDbEntity
  8
0
100
AcDbVertex
100
AcDb2dVertex
 10
-1.75
 20
-0.3499999999999999
 30
0.0
  0
VERTEX
  5
113
330
F2
100
AcDbEntity
  8
0
100
AcDbVertex
100
AcDb2dVertex
 10
-1.75
 20
-0.8999999999999998
 30
0.0
  0
VERTEX
  5
114
330
F2
100
AcDbEntity
  8
0
100
AcDbVertex
100
AcDb2dVertex
 10
-1.0
 20
-0.8999999999999997
 30
0.0
  0
VERTEX
  5
115
330
F2
100
AcDbEntity
  8
0
100
AcDbVertex
100
AcDb2dVertex
 10
-1.0
 20
-1.25
 30
0.0
  0
VERTEX
  5
116
330
F2
100
AcDbEntity
  8
0
100
AcDbVertex
100
AcDb2dVertex
 10
-0.4453617714151233
 20
-1.25
 30
0.0
  0
VERTEX
  5
117
330
F2
100
AcDbEntity
  8
0
100
AcDbVertex
100
AcDb2dVertex
 10
-0.41004482807783
 20
-1.573646395712945
 30
0.0
  0
VERTEX
  5
118
330
F2
100
AcDbEntity
  8
0
100
AcDbVertex
100
AcDb2dVertex
 10
-0.3894419543578187
 20
-1.724712343153307
 30
0.0
  0
VERTEX
  5
119
330
F2
100
AcDbEntity
  8
0
100
AcDbVertex
100
AcDb2dVertex
 10
-0.367002645293638
 20
-1.867645312957209
 30
0.0
  0
VERTEX
  5
11A
330
F2
100
AcDbEntity
  8
0
100
AcDbVertex
100
AcDb2dVertex
 10
-0.342832714703761
 20
-2.001771296701424
 30
0.0
  0
VERTEX
  5
11B
330
F2
100
AcDbEntity
  8
0
100
AcDbVertex
100
AcDb2dVertex
 10
-0.3170461372493786
 20
-2.126457815798672
 30
0.0
  0
VERTEX
  5
11C
330
F2
100
AcDbEntity
  8
0
100
AcDbVertex
100
AcDb2dVertex
 10
-0.2897645109805016
 20
-2.241116903985819
 30
0.0
  0
VERTEX
  5
11D
330
F2
100
AcDbEntity
  8
0
100
AcDbVertex
100
AcDb2dVertex
 10
-0.261116483933547
 20
-2.345207879911714
 30
0.0
  0
VERTEX
  5
11E
330
F2
100
AcDbEntity
  8
0
100
AcDbVertex
100
AcDb2dVertex
 10
-0.2312371474843182
 20
-2.438239896750379
 30
0.0
  0
VERTEX
  5
11F
330
F2
100
AcDbEntity
  8
0
100
AcDbVertex
100
AcDb2dVertex
 10
-0.2002673993170576
 20
-2.519774256816702
 30
0.0
  0
VERTEX
  5
120
330
F2
100
AcDbEntity
  8
0
100
AcDbVertex
100
AcDb2dVertex
 10
-0.1683532790135253
 20
-2.58942648026994
 30
0.0
  0
VERTEX
  5
121
330
F2
100
AcDbEntity
  8
0
100
AcDbVertex
100
AcDb2dVertex
 10
-0.1356452793951741
 20
-2.64686811814994
 30
0.0
  0
VERTEX
  5
122
330
F2
100
AcDbEntity
  8
0
100
AcDbVertex
100
AcDb2dVertex
 10
-0.1022976368658228
 20
-2.691828301196598
 30
0.0
  0
VERTEX
  5
123
330
F2
100
AcDbEntity
  8
0
100
AcDbVertex
100
AcDb2dVertex
 10
-0.0684676041012563
 20
-2.724095017149028
 30
0.0
  0
VERTEX
  5
124
330
F2
100
AcDbEntity
  8
0
100
AcDbVertex
100
AcDb2dVertex
 10
-0.0343147085154268
 20
-2.743516110501251
 30
0.0
  0
VERTEX
  5
125
330
F2
100
AcDbEntity
  8
0
100
AcDbVertex
100
AcDb2dVertex
 10
-0.0000000000000002
 20
-2.75
 30
0.0
  0
VERTEX
  5
126
330
F2
100
AcDbEntity
  8
0
100
AcDbVertex
100
AcDb2dVertex
 10
0.0343147085154264
 20
-2.743516110501251
 30
0.0
  0
VERTEX
  5
127
330
F2
100
AcDbEntity
  8
0
100
AcDbVertex
100
AcDb2dVertex
 10
0.0684676041012559
 20
-2.724095017149028
 30
0.0
  0
VERTEX
  5
128
330
F2
100
AcDbEntity
  8
0
100
AcDbVertex
100
AcDb2dVertex
 10
0.1022976368658223
 20
-2.691828301196598
 30
0.0
  0
VERTEX
  5
129
330
F2
100
AcDbEntity
  8
0
100
AcDbVertex
100
AcDb2dVertex
 10
0.1356452793951736
 20
-2.64686811814994
 30
0.0
  0
VERTEX
  5
12A
330
F2
100
AcDbEntity
  8
0
100
AcDbVertex
100
AcDb2dVertex
 10
0.1683532790135249
 20
-2.589426480269941
 30
0.0
  0
VERTEX
  5
12B
330
F2
100
AcDbEntity
  8
0
100
AcDbVertex
100
AcDb2dVertex
 10
0.2002673993170572
 20
-2.519774256816702
 30
0.0
  0
VERTEX
  5
12C
330
F2
100
AcDbEntity
  8
0
100
AcDbVertex
100
AcDb2dVertex
 10
0.2312371474843179
 20
-2.43823989675038
 30
0.0
  0
VERTEX
  5
12D
330
F2
100
AcDbEntity
  8
0
100
AcDbVertex
100
AcDb2dVertex
 10
0.2611164839335465
 20
-2.345207879911714
 30
0.0
  0
VERTEX
  5
12E
330
F2
100
AcDbEntity
  8
0
100
AcDbVertex
100
AcDb2dVertex
 10
0.2897645109805013
 20
-2.241116903985819
 30
0.0
  0
VERTEX
  5
12F
330
F2
100
AcDbEntity
  8
0
100
AcDbVertex
100
AcDb2dVertex
 10
0.3170461372493782
 20
-2.126457815798672
 30
0.0
  0
VERTEX
  5
130
330
F2
100
AcDbEntity
  8
0
100
AcDbVertex
100
AcDb2dVertex
 10
0.3428327147037606
 20
-2.001771296701425
 30
0.0
  0
VERTEX
  5
131
330
F2
100
AcDbEntity
  8
0
100
AcDbVertex
100
AcDb2dVertex
 10
0.3670026452936377
 20
-1.86764531295721
 30
0.0
  0
VERTEX
  5
132
330
F2
100
AcDbEntity
  8
0
100
AcDbVertex
100
AcDb2dVertex
 10
0.3894419543578184
 20
-1.724712343153307
 30
0.0
  0
VERTEX
  5
133
330
F2
100
AcDbEntity
  8
0
100
AcDbVertex
100
AcDb2dVertex
 10
0.4100448280778296
 20
-1.573646395712946
 30
0.0
  0
VERTEX
  5
134
330
F2
100
AcDbEntity
  8
0
100
AcDbVertex
100
AcDb2dVertex
 10
0.4453617714151232
 20
-1.25
 30
0.0
  0
VERTEX
  5
135
330
F2
100
AcDbEntity
  8
0
100
AcDbVertex
100
AcDb2dVertex
 10
1.0
 20
-1.25
 30
0.0
  0
VERTEX
  5
136
330
F2
100
AcDbEntity
  8
0
100
AcDbVertex
100
AcDb2dVertex
 10
1.0
 20
-0.8999999999999999
 30
0.0
  0
VERTEX
  5
137
330
F2
100
AcDbEntity
  8
0
100
AcDbVertex
100
AcDb2dVertex
 10
2.0
 20
-0.8999999999999999
 30
0.0
  0
VERTEX
  5
138
330
F2
100
AcDbEntity
  8
0
100
AcDbVertex
100
AcDb2dVertex
 10
2.000000000000001
 20
-1.25
 30
0.0
  0
VERTEX
  5
139
330
F2
100
AcDbEntity
  8
0
100
AcDbVertex
100
AcDb2dVertex
 10
19.0
 20
-1.250000000000001
 30
0.0
  0
VERTEX
  5
13A
330
F2
100
AcDbEntity
  8
0
100
AcDbVertex
100
AcDb2dVertex
 10
19.0
 20
-1.75
 30
0.0
  0
VERTEX
  5
13B
330
F2
100
AcDbEntity
  8
0
100
AcDbVertex
100
AcDb2dVertex
 10
1.75
 20
-1.75
 30
0.0
  0
VERTEX
  5
13C
330
F2
100
AcDbEntity
  8
0
100
AcDbVertex
100
AcDb2dVertex
 10
1.75
 20
-1.25
 30
0.0
  0
VERTEX
  5
13D
330
F2
100
AcDbEntity
  8
0
100
AcDbVertex
100
AcDb2dVertex
 10
1.25
 20
-1.25
 30
0.0
  0
VERTEX
  5
13E
330
F2
100
AcDbEntity
  8
0
100
AcDbVertex
100
AcDb2dVertex
 10
1.25
 20
-1.75
 30
0.0
  0
VERTEX
  5
13F
330
F2
100
AcDbEntity
  8
0
100
AcDbVertex
100
AcDb2dVertex
 10
0.674413807965851
 20
-1.75
 30
0.0
  0
VERTEX
  5
140
330
F2
100
AcDbEntity
  8
0
100
AcDbVertex
100
AcDb2dVertex
 10
0.6221335540888977
 20
-2.233959098015085
 30
0.0
  0
VERTEX
  5
141
330
F2
100
AcDbEntity
  8
0
100
AcDbVertex
100
AcDb2dVertex
 10
0.5913714245153892
 20
-2.460163467835683
 30
0.0
  0
VERTEX
  5
142
330
F2
100
AcDbEntity
  8
0
100
AcDbVertex
100
AcDb2dVertex
 10
0.5577231939400188
 20
-2.674361372759736
 30
0.0
  0
VERTEX
  5
143
330
F2
100
AcDbEntity
  8
0
100
AcDbVertex
100
AcDb2dVertex
 10
0.5213530775885291
 20
-2.875507451509424
 30
0.0
  0
VERTEX
  5
144
330
F2
100
AcDbEntity
  8
0
100
AcDbVertex
100
AcDb2dVertex
 10
0.4824385744486779
 20
-3.062620040319243
 30
0.0
  0
VERTEX
  5
145
330
F2
100
AcDbEntity
  8
0
100
AcDbVertex
100
AcDb2dVertex
 10
0.4411696010126095
 20
-3.23478596380121
 30
0.0
  0
VERTEX
  5
146
330
F2
100
AcDbEntity
  8
0
100
AcDbVertex
100
AcDb2dVertex
 10
0.3977475644174328
 20
-3.391164991562634
 30
0.0
  0
VERTEX
  5
147
330
F2
100
AcDbEntity
  8
0
100
AcDbVertex
100
AcDb2dVertex
 10
0.3523843795073982
 20
-3.530993938826598
 30
0.0
  0
VERTEX
  5
148
330
F2
100
AcDbEntity
  8
0
100
AcDbVertex
100
AcDb2dVertex
 10
0.3053014346147606
 20
-3.653590391042689
 30
0.0
  0
VERTEX
  5
149
330
F2
100
AcDbEntity
  8
0
100
AcDbVertex
100
AcDb2dVertex
 10
0.2567285111066809
 20
-3.758356034310545
 30
0.0
  0
VERTEX
  5
14A
330
F2
100
AcDbEntity
  8
0
100
AcDbVertex
100
AcDb2dVertex
 10
0.2069026619711603
 20
-3.844779575362581
 30
0.0
  0
VERTEX
  5
14B
330
F2
100
AcDbEntity
  8
0
100
AcDbVertex
100
AcDb2dVertex
 10
0.1560670549149012
 20
-3.912439236855364
 30
0.0
  0
VERTEX
  5
14C
330
F2
100
AcDbEntity
  8
0
100
AcDbVertex
100
AcDb2dVertex
 10
0.1044697856191851
 20
-3.961004815791715
 30
0.0
  0
VERTEX
  5
14D
330
F2
100
AcDbEntity
  8
0
100
AcDbVertex
100
AcDb2dVertex
 10
0.0523626669454966
 20
-3.990239295027734
 30
0.0
  0
VERTEX
  5
14E
330
F2
100
AcDbEntity
  8
0
100
AcDbVertex
100
AcDb2dVertex
 10
-0.0000000000000002
 20
-4.0
 30
0.0
  0
VERTEX
  5
14F
330
F2
100
AcDbEntity
  8
0
100
AcDbVertex
100
AcDb2dVertex
 10
-0.0523626669454969
 20
-3.990239295027735
 30
0.0
  0
VERTEX
  5
150
330
F2
100
AcDbEntity
  8
0
100
AcDbVertex
100
AcDb2dVertex
 10
-0.1044697856191854
 20
-3.961004815791715
 30
0.0
  0
VERTEX
  5
151
330
F2
100
AcDbEntity
  8
0
100
AcDbVertex
100
AcDb2dVertex
 10
-0.1560670549149015
 20
-3.912439236855364
 30
0.0
  0
VERTEX
  5
152
330
F2
100
AcDbEntity
  8
0
100
AcDbVertex
100
AcDb2dVertex
 10
-0.2069026619711606
 20
-3.844779575362581
 30
0.0
  0
VERTEX
  5
153
330
F2
100
AcDbEntity
  8
0
100
AcDbVertex
100
AcDb2dVertex
 10
-0.2567285111066812
 20
-3.758356034310545
 30
0.0
  0
VERTEX
  5
154
330
F2
100
AcDbEntity
  8
0
100
AcDbVertex
100
AcDb2dVertex
 10
-0.3053014346147608
 20
-3.653590391042689
 30
0.0
  0
VERTEX
  5
155
330
F2
100
AcDbEntity
  8
0
100
AcDbVertex
100
AcDb2dVertex
 10
-0.3523843795073985
 20
-3.530993938826598
 30
0.0
  0
VERTEX
  5
156
330
F2
100
AcDbEntity
  8
0
100
AcDbVertex
100
AcDb2dVertex
 10
-0.3977475644174331
 20
-3.391164991562635
 30
0.0
  0
VERTEX
  5
157
330
F2
100
AcDbEntity
  8
0
100
AcDbVertex
100
AcDb2dVertex
 10
-0.4411696010126098
 20
-3.234785963801211
 30
0.0
  0
VERTEX
  5
158
330
F2
100
AcDbEntity
  8
0
100
AcDbVertex
100
AcDb2dVertex
 10
-0.4824385744486781
 20
-3.062620040319244
 30
0.0
  0
VERTEX
  5
159
330
F2
100
AcDbEntity
  8
0
100
AcDbVertex
100
AcDb2dVertex
 10
-0.5213530775885294
 20
-2.875507451509424
 30
0.0
  0
VERTEX
  5
15A
330
F2
100
AcDbEntity
  8
0
100
AcDbVertex
100
AcDb2dVertex
 10
-0.5577231939400189
 20
-2.674361372759737
 30
0.0
  0
VERTEX
  5
15B
330
F2
100
AcDbEntity
  8
0
100
AcDbVertex
100
AcDb2dVertex
 10
-0.5913714245153888
 20
-2.460163467835686
 30
0.0
  0
VERTEX
  5
15C
330
F2
100
AcDbEntity
  8
0
100
AcDbVertex
100
AcDb2dVertex
 10
-0.6221335540888978
 20
-2.233959098015088
 30
0.0
  0
VERTEX
  5
15D
330
F2
100
AcDbEntity
  8
0
100
AcDbVertex
100
AcDb2dVertex
 10
-0.6744138079658514
 20
-1.75
 30
0.0
  0
VERTEX
  5
15E
330
F2
100
AcDbEntity
  8
0
100
AcDbVertex
100
AcDb2dVertex
 10
-1.25
 20
-1.75
 30
0.0
  0
VERTEX
  5
15F
330
F2
100
AcDbEntity
  8
0
100
AcDbVertex
100
AcDb2dVertex
 10
-1.25
 20
-1.25
 30
0.0
  0
VERTEX
  5
160
330
F2
100
AcDbEntity
  8
0
100
AcDbVertex
100
AcDb2dVertex
 10
-1.75
 20
-1.25
 30
0.0
  0
VERTEX
  5
161
330
F2
100
AcDbEntity
  8
0
100
AcDbVertex
100
AcDb2dVertex
 10
-1.75
 20
-1.75
 30
0.0
  0
VERTEX
  5
162
330
F2
100
AcDbEntity
  8
0
100
AcDbVertex
100
AcDb2dVertex
 10
-19.0
 20
-1.75
 30
0.0
  0
VERTEX
  5
163
330
F2
100
AcDbEntity
  8
0
100
AcDbVertex
100
AcDb2dVertex
 10
-19.0
 20
-1.249999999999999
 30
0.0
  0
VERTEX
  5
164
330
F2
100
AcDbEntity
  8
0
100
AcDbVertex
100
AcDb2dVertex
 10
-2.0
 20
-1.25
 30
0.0
  0
VERTEX
  5
165
330
F2
100
AcDbEntity
  8
0
100
AcDbVertex
100
AcDb2dVertex
 10
-2.0
 20
-0.0999999999999999
 30
0.0
  0
VERTEX
  5
166
330
F2
100
AcDbEntity
  8
0
100
AcDbVertex
100
AcDb2dVertex
 10
-0.1096474349905185
 20
-0.1
 30
0.0
  0
VERTEX
  5
167
330
F2
100
AcDbEntity
  8
0
100
AcDbVertex
100
AcDb2dVertex
 10
-0.1061190297469869
 20
-0.3291046278763476
 30
0.0
  0
VERTEX
  5
168
330
F2
100
AcDbEntity
  8
0
100
AcDbVertex
100
AcDb2dVertex
 10
-0.0989165914386825
 20
-0.5468150572995967
 30
0.0
  0
VERTEX
  5
169
330
F2
100
AcDbEntity
  8
0
100
AcDbVertex
100
AcDb2dVertex
 10
-0.0940107736009424
 20
-0.6490192902533103
 30
0.0
  0
VERTEX
  5
16A
330
F2
100
AcDbEntity
  8
0
100
AcDbVertex
100
AcDb2dVertex
 10
-0.088289481528434
 20
-0.7455937587790039
 30
0.0
  0
VERTEX
  5
16B
330
F2
100
AcDbEntity
  8
0
100
AcDbVertex
100
AcDb2dVertex
 10
-0.0818023432169284
 20
-0.8357007504762513
 30
0.0
  0
VERTEX
  5
16C
330
F2
100
AcDbEntity
  8
0
100
AcDbVertex
100
AcDb2dVertex
 10
-0.074605629814378
 20
-0.918558653543691
 30
0.0
  0
VERTEX
  5
16D
330
F2
100
AcDbEntity
  8
0
100
AcDbVertex
100
AcDb2dVertex
 10
-0.0667617675101437
 20
-0.9934487366858524
 30
0.0
  0
VERTEX
  5
16E
330
F2
100
AcDbEntity
  8
0
100
AcDbVertex
100
AcDb2dVertex
 10
-0.0583387960337712
 20
-1.059721383577894
 30
0.0
  0
VERTEX
  5
16F
330
F2
100
AcDbEntity
  8
0
100
AcDbVertex
100
AcDb2dVertex
 10
-0.0494097784604386
 20
-1.11680172780887
 30
0.0
  0
VERTEX
  5
170
330
F2
100
AcDbEntity
  8
0
100
AcDbVertex
100
AcDb2dVertex
 10
-0.0400521674425809
 20
-1.164194639424527
 30
0.0
  0
VERTEX
  5
171
330
F2
100
AcDbEntity
  8
0
100
AcDbVertex
100
AcDb2dVertex
 10
-0.030347133365163
 20
-1.201489019815072
 30
0.0
  0
VERTEX
  5
172
330
F2
100
AcDbEntity
  8
0
100
AcDbVertex
100
AcDb2dVertex
 10
-0.0203788602523617
 20
-1.228361367692882
 30
0.0
  0
VERTEX
  5
173
330
F2
100
AcDbEntity
  8
0
100
AcDbVertex
100
AcDb2dVertex
 10
-0.0102338155331454
 20
-1.244578585227968
 30
0.0
  0
VERTEX
  5
174
330
F2
100
AcDbEntity
  8
0
100
AcDbVertex
100
AcDb2dVertex
 10
-0.0051224649824701
 20
-1.248643910715733
 30
0.0
  0
VERTEX
  5
175
330
F2
100
AcDbEntity
  8
0
100
AcDbVertex
100
AcDb2dVertex
 10
-0.0000000000000001
 20
-1.249999999999999
 30
0.0
  0
VERTEX
  5
176
330
F2
100
AcDbEntity
  8
0
100
AcDbVertex
100
AcDb2dVertex
 10
0.00512246498247
 20
-1.248643910715733
 30
0.0
  0
VERTEX
  5
177
330
F2
100
AcDbEntity
  8
0
100
AcDbVertex
100
AcDb2dVertex
 10
0.0102338155331452
 20
-1.244578585227968
 30
0.0
  0
VERTEX
  5
178
330
F2
100
AcDbEntity
  8
0
100
AcDbVertex
100
AcDb2dVertex
 10
0.0203788602523615
 20
-1.228361367692882
 30
0.0
  0
VERTEX
  5
179
330
F2
100
AcDbEntity
  8
0
100
AcDbVertex
100
AcDb2dVertex
 10
0.0303471333651629
 20
-1.201489019815072
 30
0.0
  0
VERTEX
  5
17A
330
F2
100
AcDbEntity
  8
0
100
AcDbVertex
100
AcDb2dVertex
 10
0.0400521674425807
 20
-1.164194639424527
 30
0.0
  0
VERTEX
  5
17B
330
F2
100
AcDbEntity
  8
0
100
AcDbVertex
100
AcDb2dVertex
 10
0.0494097784604384
 20
-1.11680172780887
 30
0.0
  0
VERTEX
  5
17C
330
F2
100
AcDbEntity
  8
0
100
AcDbVertex
100
AcDb2dVertex
 10
0.058338796033771
 20
-1.059721383577894
 30
0.0
  0
VERTEX
  5
17D
330
F2
100
AcDbEntity
  8
0
100
AcDbVertex
100
AcDb2dVertex
 10
0.0667617675101436
 20
-0.9934487366858524
 30
0.0
  0
VERTEX
  5
17E
330
F2
100
AcDbEntity
  8
0
100
AcDbVertex
100
AcDb2dVertex
 10
0.0746056298143778
 20
-0.9185586535436914
 30
0.0
  0
VERTEX
  5
17F
330
F2
100
AcDbEntity
  8
0
100
AcDbVertex
100
AcDb2dVertex
 10
0.0818023432169283
 20
-0.8357007504762516
 30
0.0
  0
VERTEX
  5
180
330
F2
100
AcDbEntity
  8
0
100
AcDbVertex
100
AcDb2dVertex
 10
0.0882894815284339
 20
-0.7455937587790041
 30
0.0
  0
VERTEX
  5
181
330
F2
100
AcDbEntity
  8
0
100
AcDbVertex
100
AcDb2dVertex
 10
0.0940107736009424
 20
-0.6490192902533106
 30
0.0
  0
VERTEX
  5
182
330
F2
100
AcDbEntity
  8
0
100
AcDbVertex
100
AcDb2dVertex
 10
0.0989165914386824
 20
-0.5468150572995969
 30
0.0
  0
VERTEX
  5
183
330
F2
100
AcDbEntity
  8
0
100
AcDbVertex
100
AcDb2dVertex
 10
0.1061190297469869
 20
-0.3291046278763479
 30
0.0
  0
VERTEX
  5
184
330
F2
100
AcDbEntity
  8
0
100
AcDbVertex
100
AcDb2dVertex
 10
0.1096474349905185
 20
-0.1
 30
0.0
  0
VERTEX
  5
185
330
F2
100
AcDbEntity
  8
0
100
AcDbVertex
100
AcDb2dVertex
 10
1.75
 20
-0.1000000000000001
 30
0.0
  0
VERTEX
  5
186
330
F2
100
AcDbEntity
  8
0
100
AcDbVertex
100
AcDb2dVertex
 10
1.75
 20
-0.0000000000000001
 30
0.0
  0
VERTEX
  5
187
330
F2
100
AcDbEntity
  8
0
100
AcDbVertex
100
AcDb2dVertex
 10
-20.0
 20
0.0000000000000012
 30
0.0
  0
VERTEX
  5
188
330
F2
100
AcDbEntity
  8
0
100
AcDbVertex
100
AcDb2dVertex
 10
-20.0
 20
-9.999999999999998
 30
0.0
  0
VERTEX
  5
189
330
F2
100
AcDbEntity
  8
0
100
AcDbVertex
100
AcDb2dVertex
 10
20.0
 20
-10.0
 30
0.0
  0
VERTEX
  5
18A
330
F2
100
AcDbEntity
  8
0
100
AcDbVertex
100
AcDb2dVertex
 10
20.0
 20
-0.0000000000000012
 30
0.0
  0
VERTEX
  5
18B
330
F2
100
AcDbEntity
  8
0
100
AcDbVertex
100
AcDb2dVertex
 10
19.0
 20
0.0
 30
0.0
  0
SEQEND
  5
18C
330
F2
100
AcDbEntity
  8
ELECTRODES
  0
POLYLINE
  5
18D
330
1F
100
AcDbEntity
  8
ELECTRODES
100
AcDb2dPolyline
 66
     1
 10
0.0
 20
0.0
 30
0.0
 70
     1
  0
VERTEX
  5
18E
330
18D
100
AcDbEntity
  8
0
100
AcDbVertex
100
AcDb2dVertex
 10
1.25
 20
-10.0
 30
0.0
  0
VERTEX
  5
18F
330
18D
100
AcDbEntity
  8
0
100
AcDbVertex
100
AcDb2dVertex
 10
1.75
 20
-10.0
 30
0.0
  0
VERTEX
  5
190
330
18D
100
AcDbEntity
  8
0
100
AcDbVertex
100
AcDb2dVertex
 10
1.75
 20
-1.25
 30
0.0
  0
VERTEX
  5
191
330
18D
100
AcDbEntity
  8
0
100
AcDbVertex
100
AcDb2dVertex
 10
1.25
 20
-1.25
 30
0.0
  0
VERTEX
  5
192
330
18D
100
AcDbEntity
  8
0
100
AcDbVertex
100
AcDb2dVertex
 10
1.25
 20
-10.0
 30
0.0
  0
SEQEND
  5
193
330
18D
100
AcDbEntity
  8
ELECTRODES
  0
POLYLINE
  5
194
330
1F
100
AcDbEntity
  8
ELECTRODES
100
AcDb2dPolyline
 66
     1
 10
0.0
 20
0.0
 30
0.0
 70
     1
  0
VERTEX
  5
195
330
194
100
AcDbEntity
  8
0
100
AcDbVertex
100
AcDb2dVertex
 10
20.0
 20
-0.0000000000000012
 30
0.0
  0
VERTEX
  5
196
330
194
100
AcDbEntity
  8
0
100
AcDbVertex
100
AcDb2dVertex
 10
19.0
 20
-0.0000000000000012
 30
0.0
  0
VERTEX
  5
197
330
194
100
AcDbEntity
  8
0
100
AcDbVertex
100
AcDb2dVertex
 10
19.0
 20
-1.750000000000001
 30
0.0
  0
VERTEX
  5
198
330
194
100
AcDbEntity
  8
0
100
AcDbVertex
100
AcDb2dVertex
 10
2.0
 20
-1.75
 30
0.0
  0
VERTEX
  5
199
330
194
100
AcDbEntity
  8
0
100
AcDbVertex
100
AcDb2dVertex
 10
2.0
 20
-10.0
 30
0.0
  0
VERTEX
  5
19A
330
194
100
AcDbEntity
  8
0
100
AcDbVertex
100
AcDb2dVertex
 10
20.0
 20
-10.0
 30
0.0
  0
VERTEX
  5
19B
330
194
100
AcDbEntity
  8
0
100
AcDbVertex
100
AcDb2dVertex
 10
20.0
 20
-0.0000000000000012
 30
0.0
  0
SEQEND
  5
19C
330
194
100
AcDbEntity
  8
ELECTRODES
  0
POLYLINE
  5
19D
330
1F
100
AcDbEntity
  8
ELECTRODES
100
AcDb2dPolyline
 66
     1
 10
0.0
 20
0.0
 30
0.0
 70
     1
  0
VERTEX
  5
19E
330
19D
100
AcDbEntity
  8
0
100
AcDbVertex
100
AcDb2dVertex
 10
1.5
 20
-0.0015000000000001
 30
0.0
  0
VERTEX
  5
19F
330
19D
100
AcDbEntity
  8
0
100
AcDbVertex
100
AcDb2dVertex
 10
-1.5
 20
-0.0015000000000001
 30
0.0
  0
VERTEX
  5
1A0
330
19D
100
AcDbEntity
  8
0
100
AcDbVertex
100
AcDb2dVertex
 10
-1.5
 20
-3.6025
 30
0.0
  0
VERTEX
  5
1A1
330
19D
100
AcDbEntity
  8
0
100
AcDbVertex
100
AcDb2dVertex
 10
1.5
 20
-3.6025
 30
0.0
  0
VERTEX
  5
1A2
330
19D
100
AcDbEntity
  8
0
100
AcDbVertex
100
AcDb2dVertex
 10
1.5
 20
-0.0015000000000001
 30
0.0
  0
SEQEND
  5
1A3
330
19D
100
AcDbEntity
  8
ELECTRODES
  0
POLYLINE
  5
1A4
330
1F
100
AcDbEntity
  8
ELECTRODES
100
AcDb2dPolyline
 66
     1
 10
0.0
 20
0.0
 30
0.0
 70
     1
  0
VERTEX
  5
1A5
330
1A4
100
AcDbEntity
  8
0
100
AcDbVertex
100
AcDb2dVertex
 10
-19.0
 20
0.0000000000000012
 30
0.0
  0
VERTEX
  5
1A6
330
1A4
100
AcDbEntity
  8
0
100
AcDbVertex
100
AcDb2dVertex
 10
-19.0
 20
-1.249999999999999
 30
0.0
  0
VERTEX
  5
1A7
330
1A4
100
AcDbEntity
  8
0
100
AcDbVertex
100
AcDb2dVertex
 10
-2.0
 20
-1.25
 30
0.0
  0
VERTEX
  5
1A8
330
1A4
100
AcDbEntity
  8
0
100
AcDbVertex
100
AcDb2dVertex
 10
-2.0
 20
-0.0999999999999999
 30
0.0
  0
VERTEX
  5
1A9
330
1A4
100
AcDbEntity
  8
0
100
AcDbVertex
100
AcDb2dVertex
 10
-0.1096474349905185
 20
-0.1
 30
0.0
  0
VERTEX
  5
1AA
330
1A4
100
AcDbEntity
  8
0
100
AcDbVertex
100
AcDb2dVertex
 10
-0.1061190297469869
 20
-0.3291046278763476
 30
0.0
  0
VERTEX
  5
1AB
330
1A4
100
AcDbEntity
  8
0
100
AcDbVertex
100
AcDb2dVertex
 10
-0.0989165914386825
 20
-0.5468150572995967
 30
0.0
  0
VERTEX
  5
1AC
330
1A4
100
AcDbEntity
  8
0
100
AcDbVertex
100
AcDb2dVertex
 10
-0.0940107736009424
 20
-0.6490192902533103
 30
0.0
  0
VERTEX
  5
1AD
330
1A4
100
AcDbEntity
  8
0
100
AcDbVertex
100
AcDb2dVertex
 10
-0.088289481528434
 20
-0.7455937587790039
 30
0.0
  0
VERTEX
  5
1AE
330
1A4
100
AcDbEntity
  8
0
100
AcDbVertex
100
AcDb2dVertex
 10
-0.0818023432169284
 20
-0.8357007504762513
 30
0.0
  0
VERTEX
  5
1AF
330
1A4
100
AcDbEntity
  8
0
100
AcDbVertex
100
AcDb2dVertex
 10
-0.074605629814378
 20
-0.918558653543691
 30
0.0
  0
VERTEX
  5
1B0
330
1A4
100
AcDbEntity
  8
0
100
AcDbVertex
100
AcDb2dVertex
 10
-0.0667617675101437
 20
-0.9934487366858524
 30
0.0
  0
VERTEX
  5
1B1
330
1A4
100
AcDbEntity
  8
0
100
AcDbVertex
100
AcDb2dVertex
 10
-0.0583387960337712
 20
-1.059721383577894
 30
0.0
  0
VERTEX
  5
1B2
330
1A4
100
AcDbEntity
  8
0
100
AcDbVertex
100
AcDb2dVertex
 10
-0.0494097784604386
 20
-1.11680172780887
 30
0.0
  0
VERTEX
  5
1B3
330
1A4
100
AcDbEntity
  8
0
100
AcDbVertex
100
AcDb2dVertex
 10
-0.0400521674425809
 20
-1.164194639424527
 30
0.0
  0
VERTEX
  5
1B4
330
1A4
100
AcDbEntity
  8
0
100
AcDbVertex
100
AcDb2dVertex
 10
-0.030347133365163
 20
-1.201489019815072
 30
0.0
  0
VERTEX
  5
1B5
330
1A4
100
AcDbEntity
  8
0
100
AcDbVertex
100
AcDb2dVertex
 10
-0.0203788602523617
 20
-1.228361367692882
 30
0.0
  0
VERTEX
  5
1B6
330
1A4
100
AcDbEntity
  8
0
100
AcDbVertex
100
AcDb2dVertex
 10
-0.0102338155331454
 20
-1.244578585227968
 30
0.0
  0
VERTEX
  5
1B7
330
1A4
100
AcDbEntity
  8
0
100
AcDbVertex
100
AcDb2dVertex
 10
-0.0051224649824701
 20
-1.248643910715733
 30
0.0
  0
VERTEX
  5
1B8
330
1A4
100
AcDbEntity
  8
0
100
AcDbVertex
100
AcDb2dVertex
 10
-0.0000000000000001
 20
-1.249999999999999
 30
0.0
  0
VERTEX
  5
1B9
330
1A4
100
AcDbEntity
  8
0
100
AcDbVertex
100
AcDb2dVertex
 10
0.00512246498247
 20
-1.248643910715733
 30
0.0
  0
VERTEX
  5
1BA
330
1A4
100
AcDbEntity
  8
0
100
AcDbVertex
100
AcDb2dVertex
 10
0.0102338155331452
 20
-1.244578585227968
 30
0.0
  0
VERTEX
  5
1BB
330
1A4
100
AcDbEntity
  8
0
100
AcDbVertex
100
AcDb2dVertex
 10
0.0203788602523615
 20
-1.228361367692882
 30
0.0
  0
VERTEX
  5
1BC
330
1A4
100
AcDbEntity
  8
0
100
AcDbVertex
100
AcDb2dVertex
 10
0.0303471333651629
 20
-1.201489019815072
 30
0.0
  0
VERTEX
  5
1BD
330
1A4
100
AcDbEntity
  8
0
100
AcDbVertex
100
AcDb2dVertex
 10
0.0400521674425807
 20
-1.164194639424527
 30
0.0
  0
VERTEX
  5
1BE
330
1A4
100
AcDbEntity
  8
0
100
AcDbVertex
100
AcDb2dVertex
 10
0.0494097784604384
 20
-1.11680172780887
 30
0.0
  0
VERTEX
  5
1BF
330
1A4
100
AcDbEntity
  8
0
100
AcDbVertex
100
AcDb2dVertex
 10
0.058338796033771
 20
-1.059721383577894
 30
0.0
  0
VERTEX
  5
1C0
330
1A4
100
AcDbEntity
  8
0
100
AcDbVertex
100
AcDb2dVertex
 10
0.0667617675101436
 20
-0.9934487366858524
 30
0.0
  0
VERTEX
  5
1C1
330
1A4
100
AcDbEntity
  8
0
100
AcDbVertex
100
AcDb2dVertex
 10
0.0746056298143778
 20
-0.9185586535436914
 30
0.0
  0
VERTEX
  5
1C2
330
1A4
100
AcDbEntity
  8
0
100
AcDbVertex
100
AcDb2dVertex
 10
0.0818023432169283
 20
-0.8357007504762516
 30
0.0
  0
VERTEX
  5
1C3
330
1A4
100
AcDbEntity
  8
0
100
AcDbVertex
100
AcDb2dVertex
 10
0.0882894815284339
 20
-0.7455937587790041
 30
0.0
  0
VERTEX
  5
1C4
330
1A4
100
AcDbEntity
  8
0
100
AcDbVertex
100
AcDb2dVertex
 10
0.0940107736009424
 20
-0.6490192902533106
 30
0.0
  0
VERTEX
  5
1C5
330
1A4
100
AcDbEntity
  8
0
100
AcDbVertex
100
AcDb2dVertex
 10
0.0989165914386824
 20
-0.5468150572995969
 30
0.0
  0
VERTEX
  5
1C6
330
1A4
100
AcDbEntity
  8
0
100
AcDbVertex
100
AcDb2dVertex
 10
0.1061190297469869
 20
-0.3291046278763479
 30
0.0
  0
VERTEX
  5
1C7
330
1A4
100
AcDbEntity
  8
0
100
AcDbVertex
100
AcDb2dVertex
 10
0.1096474349905185
 20
-0.1
 30
0.0
  0
VERTEX
  5
1C8
330
1A4
100
AcDbEntity
  8
0
100
AcDbVertex
100
AcDb2dVertex
 10
1.75
 20
-0.1000000000000001
 30
0.0
  0
VERTEX
  5
1C9
330
1A4
100
AcDbEntity
  8
0
100
AcDbVertex
100
AcDb2dVertex
 10
1.75
 20
-0.0000000000000001
 30
0.0
  0
VERTEX
  5
1CA
330
1A4
100
AcDbEntity
  8
0
100
AcDbVertex
100
AcDb2dVertex
 10
-19.0
 20
0.0000000000000012
 30
0.0
  0
SEQEND
  5
1CB
330
1A4
100
AcDbEntity
  8
ELECTRODES
  0
POLYLINE
  5
1CC
330
1F
100
AcDbEntity
  8
ELECTRODES
100
AcDb2dPolyline
 66
     1
 10
0.0
 20
0.0
 30
0.0
 70
     1
  0
VERTEX
  5
1CD
330
1CC
100
AcDbEntity
  8
0
100
AcDbVertex
100
AcDb2dVertex
 10
-20.0
 20
-9.999999999999998
 30
0.0
  0
VERTEX
  5
1CE
330
1CC
100
AcDbEntity
  8
0
100
AcDbVertex
100
AcDb2dVertex
 10
-2.000000000000001
 20
-10.0
 30
0.0
  0
VERTEX
  5
1CF
330
1CC
100
AcDbEntity
  8
0
100
AcDbVertex
100
AcDb2dVertex
 10
-2.0
 20
-1.75
 30
0.0
  0
VERTEX
  5
1D0
330
1CC
100
AcDbEntity
  8
0
100
AcDbVertex
100
AcDb2dVertex
 10
-19.0
 20
-1.749999999999999
 30
0.0
  0
VERTEX
  5
1D1
330
1CC
100
AcDbEntity
  8
0
100
AcDbVertex
100
AcDb2dVertex
 10
-19.0
 20
0.0000000000000012
 30
0.0
  0
VERTEX
  5
1D2
330
1CC
100
AcDbEntity
  8
0
100
AcDbVertex
100
AcDb2dVertex
 10
-20.0
 20
0.0000000000000012
 30
0.0
  0
VERTEX
  5
1D3
330
1CC
100
AcDbEntity
  8
0
100
AcDbVertex
100
AcDb2dVertex
 10
-20.0
 20
-9.999999999999998
 30
0.0
  0
SEQEND
  5
1D4
330
1CC
100
AcDbEntity
  8
ELECTRODES
  0
POLYLINE
  5
1D5
330
1F
100
AcDbEntity
  8
ELECTRODES
100
AcDb2dPolyline
 66
     1
 10
0.0
 20
0.0
 30
0.0
 70
     1
  0
VERTEX
  5
1D6
330
1D5
100
AcDbEntity
  8
0
100
AcDbVertex
100
AcDb2dVertex
 10
19.2
 20
0.0
 30
0.0
  0
VERTEX
  5
1D7
330
1D5
100
AcDbEntity
  8
0
100
AcDbVertex
100
AcDb2dVertex
 10
1.5
 20
0.0
 30
0.0
  0
VERTEX
  5
1D8
330
1D5
100
AcDbEntity
  8
0
100
AcDbVertex
100
AcDb2dVertex
 10
1.5
 20
-2.2
 30
0.0
  0
VERTEX
  5
1D9
330
1D5
100
AcDbEntity
  8
0
100
AcDbVertex
100
AcDb2dVertex
 10
19.2
 20
-2.2
 30
0.0
  0
VERTEX
  5
1DA
330
1D5
100
AcDbEntity
  8
0
100
AcDbVertex
100
AcDb2dVertex
 10
19.2
 20
0.0
 30
0.0
  0
SEQEND
  5
1DB
330
1D5
100
AcDbEntity
  8
ELECTRODES
  0
POLYLINE
  5
1DC
330
1F
100
AcDbEntity
  8
ELECTRODES
100
AcDb2dPolyline
 66
     1
 10
0.0
 20
0.0
 30
0.0
 70
     1
  0
VERTEX
  5
1DD
330
1DC
100
AcDbEntity
  8
0
100
AcDbVertex
100
AcDb2dVertex
 10
-1.75
 20
-1.25
 30
0.0
  0
VERTEX
  5
1DE
330
1DC
100
AcDbEntity
  8
0
100
AcDbVertex
100
AcDb2dVertex
 10
-1.25
 20
-1.25
 30
0.0
  0
VERTEX
  5
1DF
330
1DC
100
AcDbEntity
  8
0
100
AcDbVertex
100
AcDb2dVertex
 10
-1.250000000000001
 20
-10.0
 30
0.0
  0
VERTEX
  5
1E0
330
1DC
100
AcDbEntity
  8
0
100
AcDbVertex
100
AcDb2dVertex
 10
-1.000000000000001
 20
-10.0
 30
0.0
  0
VERTEX
  5
1E1
330
1DC
100
AcDbEntity
  8
0
100
AcDbVertex
100
AcDb2dVertex
 10
-1.0
 20
-1.75
 30
0.0
  0
VERTEX
  5
1E2
330
1DC
100
AcDbEntity
  8
0
100
AcDbVertex
100
AcDb2dVertex
 10
-0.6744138079658514
 20
-1.75
 30
0.0
  0
VERTEX
  5
1E3
330
1DC
100
AcDbEntity
  8
0
100
AcDbVertex
100
AcDb2dVertex
 10
-0.6221335540888987
 20
-2.233959098015089
 30
0.0
  0
VERTEX
  5
1E4
330
1DC
100
AcDbEntity
  8
0
100
AcDbVertex
100
AcDb2dVertex
 10
-0.59137142451539
 20
-2.460163467835688
 30
0.0
  0
VERTEX
  5
1E5
330
1DC
100
AcDbEntity
  8
0
100
AcDbVertex
100
AcDb2dVertex
 10
-0.5577231939400197
 20
-2.674361372759741
 30
0.0
  0
VERTEX
  5
1E6
330
1DC
100
AcDbEntity
  8
0
100
AcDbVertex
100
AcDb2dVertex
 10
-0.5213530775885304
 20
-2.875507451509429
 30
0.0
  0
VERTEX
  5
1E7
330
1DC
100
AcDbEntity
  8
0
100
AcDbVertex
100
AcDb2dVertex
 10
-0.4824385744486788
 20
-3.06262004031925
 30
0.0
  0
VERTEX
  5
1E8
330
1DC
100
AcDbEntity
  8
0
100
AcDbVertex
100
AcDb2dVertex
 10
-0.4411696010126103
 20
-3.234785963801218
 30
0.0
  0
VERTEX
  5
1E9
330
1DC
100
AcDbEntity
  8
0
100
AcDbVertex
100
AcDb2dVertex
 10
-0.3977475644174339
 20
-3.391164991562641
 30
0.0
  0
VERTEX
  5
1EA
330
1DC
100
AcDbEntity
  8
0
100
AcDbVertex
100
AcDb2dVertex
 10
-0.3523843795073996
 20
-3.530993938826604
 30
0.0
  0
VERTEX
  5
1EB
330
1DC
100
AcDbEntity
  8
0
100
AcDbVertex
100
AcDb2dVertex
 10
-0.3053014346147617
 20
-3.653590391042697
 30
0.0
  0
VERTEX
  5
1EC
330
1DC
100
AcDbEntity
  8
0
100
AcDbVertex
100
AcDb2dVertex
 10
-0.2567285111066818
 20
-3.758356034310553
 30
0.0
  0
VERTEX
  5
1ED
330
1DC
100
AcDbEntity
  8
0
100
AcDbVertex
100
AcDb2dVertex
 10
-0.2069026619711612
 20
-3.844779575362589
 30
0.0
  0
VERTEX
  5
1EE
330
1DC
100
AcDbEntity
  8
0
100
AcDbVertex
100
AcDb2dVertex
 10
-0.1560670549149022
 20
-3.912439236855372
 30
0.0
  0
VERTEX
  5
1EF
330
1DC
100
AcDbEntity
  8
0
100
AcDbVertex
100
AcDb2dVertex
 10
-0.1044697856191857
 20
-3.961004815791724
 30
0.0
  0
VERTEX
  5
1F0
330
1DC
100
AcDbEntity
  8
0
100
AcDbVertex
100
AcDb2dVertex
 10
-0.0523626669454969
 20
-3.990239295027744
 30
0.0
  0
VERTEX
  5
1F1
330
1DC
100
AcDbEntity
  8
0
100
AcDbVertex
100
AcDb2dVertex
 10
-0.0000000000000002
 20
-4.000000000000009
 30
0.0
  0
VERTEX
  5
1F2
330
1DC
100
AcDbEntity
  8
0
100
AcDbVertex
100
AcDb2dVertex
 10
0.0523626669454966
 20
-3.990239295027743
 30
0.0
  0
VERTEX
  5
1F3
330
1DC
100
AcDbEntity
  8
0
100
AcDbVertex
100
AcDb2dVertex
 10
0.1044697856191854
 20
-3.961004815791724
 30
0.0
  0
VERTEX
  5
1F4
330
1DC
100
AcDbEntity
  8
0
100
AcDbVertex
100
AcDb2dVertex
 10
0.1560670549149018
 20
-3.912439236855372
 30
0.0
  0
VERTEX
  5
1F5
330
1DC
100
AcDbEntity
  8
0
100
AcDbVertex
100
AcDb2dVertex
 10
0.2069026619711609
 20
-3.844779575362589
 30
0.0
  0
VERTEX
  5
1F6
330
1DC
100
AcDbEntity
  8
0
100
AcDbVertex
100
AcDb2dVertex
 10
0.2567285111066815
 20
-3.758356034310552
 30
0.0
  0
VERTEX
  5
1F7
330
1DC
100
AcDbEntity
  8
0
100
AcDbVertex
100
AcDb2dVertex
 10
0.3053014346147614
 20
-3.653590391042696
 30
0.0
  0
VERTEX
  5
1F8
330
1DC
100
AcDbEntity
  8
0
100
AcDbVertex
100
AcDb2dVertex
 10
0.3523843795073994
 20
-3.530993938826604
 30
0.0
  0
VERTEX
  5
1F9
330
1DC
100
AcDbEntity
  8
0
100
AcDbVertex
100
AcDb2dVertex
 10
0.3977475644174336
 20
-3.39116499156264
 30
0.0
  0
VERTEX
  5
1FA
330
1DC
100
AcDbEntity
  8
0
100
AcDbVertex
100
AcDb2dVertex
 10
0.44116960101261
 20
-3.234785963801218
 30
0.0
  0
VERTEX
  5
1FB
330
1DC
100
AcDbEntity
  8
0
100
AcDbVertex
100
AcDb2dVertex
 10
0.4824385744486786
 20
-3.062620040319249
 30
0.0
  0
VERTEX
  5
1FC
330
1DC
100
AcDbEntity
  8
0
100
AcDbVertex
100
AcDb2dVertex
 10
0.5213530775885302
 20
-2.875507451509428
 30
0.0
  0
VERTEX
  5
1FD
330
1DC
100
AcDbEntity
  8
0
100
AcDbVertex
100
AcDb2dVertex
 10
0.5577231939400197
 20
-2.67436137275974
 30
0.0
  0
VERTEX
  5
1FE
330
1DC
100
AcDbEntity
  8
0
100
AcDbVertex
100
AcDb2dVertex
 10
0.5913714245153899
 20
-2.460163467835687
 30
0.0
  0
VERTEX
  5
1FF
330
1DC
100
AcDbEntity
  8
0
100
AcDbVertex
100
AcDb2dVertex
 10
0.6221335540888987
 20
-2.233959098015088
 30
0.0
  0
VERTEX
  5
200
330
1DC
100
AcDbEntity
  8
0
100
AcDbVertex
100
AcDb2dVertex
 10
0.674413807965851
 20
-1.75
 30
0.0
  0
VERTEX
  5
201
330
1DC
100
AcDbEntity
  8
0
100
AcDbVertex
100
AcDb2dVertex
 10
1.0
 20
-1.75
 30
0.0
  0
VERTEX
  5
202
330
1DC
100
AcDbEntity
  8
0
100
AcDbVertex
100
AcDb2dVertex
 10
0.9999999999999996
 20
-10.0
 30
0.0
  0
VERTEX
  5
203
330
1DC
100
AcDbEntity
  8
0
100
AcDbVertex
100
AcDb2dVertex
 10
1.25
 20
-10.0
 30
0.0
  0
VERTEX
  5
204
330
1DC
100
AcDbEntity
  8
0
100
AcDbVertex
100
AcDb2dVertex
 10
1.25
 20
-1.25
 30
0.0
  0
VERTEX
  5
205
330
1DC
100
AcDbEntity
  8
0
100
AcDbVertex
100
AcDb2dVertex
 10
1.75
 20
-1.25
 30
0.0
  0
VERTEX
  5
206
330
1DC
100
AcDbEntity
  8
0
100
AcDbVertex
100
AcDb2dVertex
 10
1.75
 20
-10.0
 30
0.0
  0
VERTEX
  5
207
330
1DC
100
AcDbEntity
  8
0
100
AcDbVertex
100
AcDb2dVertex
 10
2.0
 20
-10.0
 30
0.0
  0
VERTEX
  5
208
330
1DC
100
AcDbEntity
  8
0
100
AcDbVertex
100
AcDb2dVertex
 10
2.0
 20
-1.75
 30
0.0
  0
VERTEX
  5
209
330
1DC
100
AcDbEntity
  8
0
100
AcDbVertex
100
AcDb2dVertex
 10
19.0
 20
-1.750000000000001
 30
0.0
  0
VERTEX
  5
20A
330
1DC
100
AcDbEntity
  8
0
100
AcDbVertex
100
AcDb2dVertex
 10
19.0
 20
-1.250000000000001
 30
0.0
  0
VERTEX
  5
20B
330
1DC
100
AcDbEntity
  8
0
100
AcDbVertex
100
AcDb2dVertex
 10
2.000000000000001
 20
-1.25
 30
0.0
  0
VERTEX
  5
20C
330
1DC
100
AcDbEntity
  8
0
100
AcDbVertex
100
AcDb2dVertex
 10
2.0
 20
-0.8999999999999999
 30
0.0
  0
VERTEX
  5
20D
330
1DC
100
AcDbEntity
  8
0
100
AcDbVertex
100
AcDb2dVertex
 10
1.0
 20
-0.8999999999999999
 30
0.0
  0
VERTEX
  5
20E
330
1DC
100
AcDbEntity
  8
0
100
AcDbVertex
100
AcDb2dVertex
 10
1.0
 20
-1.25
 30
0.0
  0
VERTEX
  5
20F
330
1DC
100
AcDbEntity
  8
0
100
AcDbVertex
100
AcDb2dVertex
 10
0.4453617714151232
 20
-1.25
 30
0.0
  0
VERTEX
  5
210
330
1DC
100
AcDbEntity
  8
0
100
AcDbVertex
100
AcDb2dVertex
 10
0.4100448280778296
 20
-1.573646395712946
 30
0.0
  0
VERTEX
  5
211
330
1DC
100
AcDbEntity
  8
0
100
AcDbVertex
100
AcDb2dVertex
 10
0.3894419543578184
 20
-1.724712343153307
 30
0.0
  0
VERTEX
  5
212
330
1DC
100
AcDbEntity
  8
0
100
AcDbVertex
100
AcDb2dVertex
 10
0.3670026452936377
 20
-1.86764531295721
 30
0.0
  0
VERTEX
  5
213
330
1DC
100
AcDbEntity
  8
0
100
AcDbVertex
100
AcDb2dVertex
 10
0.3428327147037606
 20
-2.001771296701425
 30
0.0
  0
VERTEX
  5
214
330
1DC
100
AcDbEntity
  8
0
100
AcDbVertex
100
AcDb2dVertex
 10
0.3170461372493782
 20
-2.126457815798672
 30
0.0
  0
VERTEX
  5
215
330
1DC
100
AcDbEntity
  8
0
100
AcDbVertex
100
AcDb2dVertex
 10
0.2897645109805013
 20
-2.241116903985819
 30
0.0
  0
VERTEX
  5
216
330
1DC
100
AcDbEntity
  8
0
100
AcDbVertex
100
AcDb2dVertex
 10
0.2611164839335465
 20
-2.345207879911714
 30
0.0
  0
VERTEX
  5
217
330
1DC
100
AcDbEntity
  8
0
100
AcDbVertex
100
AcDb2dVertex
 10
0.2312371474843179
 20
-2.43823989675038
 30
0.0
  0
VERTEX
  5
218
330
1DC
100
AcDbEntity
  8
0
100
AcDbVertex
100
AcDb2dVertex
 10
0.2002673993170572
 20
-2.519774256816702
 30
0.0
  0
VERTEX
  5
219
330
1DC
100
AcDbEntity
  8
0
100
AcDbVertex
100
AcDb2dVertex
 10
0.1683532790135249
 20
-2.589426480269941
 30
0.0
  0
VERTEX
  5
21A
330
1DC
100
AcDbEntity
  8
0
100
AcDbVertex
100
AcDb2dVertex
 10
0.1356452793951736
 20
-2.64686811814994
 30
0.0
  0
VERTEX
  5
21B
330
1DC
100
AcDbEntity
  8
0
100
AcDbVertex
100
AcDb2dVertex
 10
0.1022976368658223
 20
-2.691828301196598
 30
0.0
  0
VERTEX
  5
21C
330
1DC
100
AcDbEntity
  8
0
100
AcDbVertex
100
AcDb2dVertex
 10
0.0684676041012559
 20
-2.724095017149028
 30
0.0
  0
VERTEX
  5
21D
330
1DC
100
AcDbEntity
  8
0
100
AcDbVertex
100
AcDb2dVertex
 10
0.0343147085154264
 20
-2.743516110501251
 30
0.0
  0
VERTEX
  5
21E
330
1DC
100
AcDbEntity
  8
0
100
AcDbVertex
100
AcDb2dVertex
 10
-0.0000000000000002
 20
-2.75
 30
0.0
  0
VERTEX
  5
21F
330
1DC
100
AcDbEntity
  8
0
100
AcDbVertex
100
AcDb2dVertex
 10
-0.0343147085154268
 20
-2.743516110501251
 30
0.0
  0
VERTEX
  5
220
330
1DC
100
AcDbEntity
  8
0
100
AcDbVertex
100
AcDb2dVertex
 10
-0.0684676041012563
 20
-2.724095017149028
 30
0.0
  0
VERTEX
  5
221
330
1DC
100
AcDbEntity
  8
0
100
AcDbVertex
100
AcDb2dVertex
 10
-0.1022976368658228
 20
-2.691828301196598
 30
0.0
  0
VERTEX
  5
222
330
1DC
100
AcDbEntity
  8
0
100
AcDbVertex
100
AcDb2dVertex
 10
-0.1356452793951741
 20
-2.64686811814994
 30
0.0
  0
VERTEX
  5
223
330
1DC
100
AcDbEntity
  8
0
100
AcDbVertex
100
AcDb2dVertex
 10
-0.1683532790135253
 20
-2.58942648026994
 30
0.0
  0
VERTEX
  5
224
330
1DC
100
AcDbEntity
  8
0
100
AcDbVertex
100
AcDb2dVertex
 10
-0.2002673993170576
 20
-2.519774256816702
 30
0.0
  0
VERTEX
  5
225
330
1DC
100
AcDbEntity
  8
0
100
AcDbVertex
100
AcDb2dVertex
 10
-0.2312371474843182
 20
-2.438239896750379
 30
0.0
  0
VERTEX
  5
226
330
1DC
100
AcDbEntity
  8
0
100
AcDbVertex
100
AcDb2dVertex
 10
-0.261116483933547
 20
-2.345207879911714
 30
0.0
  0
VERTEX
  5
227
330
1DC
100
AcDbEntity
  8
0
100
AcDbVertex
100
AcDb2dVertex
 10
-0.2897645109805016
 20
-2.241116903985819
 30
0.0
  0
VERTEX
  5
228
330
1DC
100
AcDbEntity
  8
0
100
AcDbVertex
100
AcDb2dVertex
 10
-0.3170461372493786
 20
-2.126457815798672
 30
0.0
  0
VERTEX
  5
229
330
1DC
100
AcDbEntity
  8
0
100
AcDbVertex
100
AcDb2dVertex
 10
-0.342832714703761
 20
-2.001771296701424
 30
0.0
  0
VERTEX
  5
22A
330
1DC
100
AcDbEntity
  8
0
100
AcDbVertex
100
AcDb2dVertex
 10
-0.367002645293638
 20
-1.867645312957209
 30
0.0
  0
VERTEX
  5
22B
330
1DC
100
AcDbEntity
  8
0
100
AcDbVertex
100
AcDb2dVertex
 10
-0.3894419543578187
 20
-1.724712343153307
 30
0.0
  0
VERTEX
  5
22C
330
1DC
100
AcDbEntity
  8
0
100
AcDbVertex
100
AcDb2dVertex
 10
-0.41004482807783
 20
-1.573646395712945
 30
0.0
  0
VERTEX
  5
22D
330
1DC
100
AcDbEntity
  8
0
100
AcDbVertex
100
AcDb2dVertex
 10
-0.4453617714151233
 20
-1.25
 30
0.0
  0
VERTEX
  5
22E
330
1DC
100
AcDbEntity
  8
0
100
AcDbVertex
100
AcDb2dVertex
 10
-1.0
 20
-1.25
 30
0.0
  0
VERTEX
  5
22F
330
1DC
100
AcDbEntity
  8
0
100
AcDbVertex
100
AcDb2dVertex
 10
-1.0
 20
-0.8999999999999997
 30
0.0
  0
VERTEX
  5
230
330
1DC
100
AcDbEntity
  8
0
100
AcDbVertex
100
AcDb2dVertex
 10
-1.75
 20
-0.8999999999999998
 30
0.0
  0
VERTEX
  5
231
330
1DC
100
AcDbEntity
  8
0
100
AcDbVertex
100
AcDb2dVertex
 10
-1.75
 20
-0.3499999999999999
 30
0.0
  0
VERTEX
  5
232
330
1DC
100
AcDbEntity
  8
0
100
AcDbVertex
100
AcDb2dVertex
 10
-0.2740014901583503
 20
-0.35
 30
0.0
  0
VERTEX
  5
233
330
1DC
100
AcDbEntity
  8
0
100
AcDbVertex
100
AcDb2dVertex
 10
-0.2602545575778943
 20
-0.6270808584837111
 30
0.0
  0
VERTEX
  5
234
330
1DC
100
AcDbEntity
  8
0
100
AcDbVertex
100
AcDb2dVertex
 10
-0.2389665500670076
 20
-0.8859915693040172
 30
0.0
  0
VERTEX
  5
235
330
1DC
100
AcDbEntity
  8
0
100
AcDbVertex
100
AcDb2dVertex
 10
-0.2256793165499122
 20
-1.006262058970216
 30
0.0
  0
VERTEX
  5
236
330
1DC
100
AcDbEntity
  8
0
100
AcDbVertex
100
AcDb2dVertex
 10
-0.2107543039310875
 20
-1.119229996518486
 30
0.0
  0
VERTEX
  5
237
330
1DC
100
AcDbEntity
  8
0
100
AcDbVertex
100
AcDb2dVertex
 10
-0.1942998246342589
 20
-1.224075561461463
 30
0.0
  0
VERTEX
  5
238
330
1DC
100
AcDbEntity
  8
0
100
AcDbVertex
100
AcDb2dVertex
 10
-0.1764352905875292
 20
-1.320037878244408
 30
0.0
  0
VERTEX
  5
239
330
1DC
100
AcDbEntity
  8
0
100
AcDbVertex
100
AcDb2dVertex
 10
-0.1572903466381585
 20
-1.406420538001047
 30
0.0
  0
VERTEX
  5
23A
330
1DC
100
AcDbEntity
  8
0
100
AcDbVertex
100
AcDb2dVertex
 10
-0.1370039297059469
 20
-1.482596652467695
 30
0.0
  0
VERTEX
  5
23B
330
1DC
100
AcDbEntity
  8
0
100
AcDbVertex
100
AcDb2dVertex
 10
-0.1157232605030469
 20
-1.548013403378896
 30
0.0
  0
VERTEX
  5
23C
330
1DC
100
AcDbEntity
  8
0
100
AcDbVertex
100
AcDb2dVertex
 10
-0.093602775137402
 20
-1.602196054329103
 30
0.0
  0
VERTEX
  5
23D
330
1DC
100
AcDbEntity
  8
0
100
AcDbVertex
100
AcDb2dVertex
 10
-0.0708030043532815
 20
-1.644751395985891
 30
0.0
  0
VERTEX
  5
23E
330
1DC
100
AcDbEntity
  8
0
100
AcDbVertex
100
AcDb2dVertex
 10
-0.0474894085423832
 20
-1.675370599652428
 30
0.0
  0
VERTEX
  5
23F
330
1DC
100
AcDbEntity
  8
0
100
AcDbVertex
100
AcDb2dVertex
 10
-0.0238311769799539
 20
-1.693831458470577
 30
0.0
  0
VERTEX
  5
240
330
1DC
100
AcDbEntity
  8
0
100
AcDbVertex
100
AcDb2dVertex
 10
-0.0000000000000001
 20
-1.7
 30
0.0
  0
VERTEX
  5
241
330
1DC
100
AcDbEntity
  8
0
100
AcDbVertex
100
AcDb2dVertex
 10
0.0238311769799538
 20
-1.693831458470577
 30
0.0
  0
VERTEX
  5
242
330
1DC
100
AcDbEntity
  8
0
100
AcDbVertex
100
AcDb2dVertex
 10
0.0474894085423831
 20
-1.675370599652428
 30
0.0
  0
VERTEX
  5
243
330
1DC
100
AcDbEntity
  8
0
100
AcDbVertex
100
AcDb2dVertex
 10
0.0708030043532814
 20
-1.644751395985891
 30
0.0
  0
VERTEX
  5
244
330
1DC
100
AcDbEntity
  8
0
100
AcDbVertex
100
AcDb2dVertex
 10
0.0936027751374019
 20
-1.602196054329103
 30
0.0
  0
VERTEX
  5
245
330
1DC
100
AcDbEntity
  8
0
100
AcDbVertex
100
AcDb2dVertex
 10
0.1157232605030468
 20
-1.548013403378896
 30
0.0
  0
VERTEX
  5
246
330
1DC
100
AcDbEntity
  8
0
100
AcDbVertex
100
AcDb2dVertex
 10
0.1370039297059468
 20
-1.482596652467695
 30
0.0
  0
VERTEX
  5
247
330
1DC
100
AcDbEntity
  8
0
100
AcDbVertex
100
AcDb2dVertex
 10
0.1572903466381584
 20
-1.406420538001047
 30
0.0
  0
VERTEX
  5
248
330
1DC
100
AcDbEntity
  8
0
100
AcDbVertex
100
AcDb2dVertex
 10
0.1764352905875291
 20
-1.320037878244408
 30
0.0
  0
VERTEX
  5
249
330
1DC
100
AcDbEntity
  8
0
100
AcDbVertex
100
AcDb2dVertex
 10
0.1942998246342588
 20
-1.224075561461462
 30
0.0
  0
VERTEX
  5
24A
330
1DC
100
AcDbEntity
  8
0
100
AcDbVertex
100
AcDb2dVertex
 10
0.2107543039310875
 20
-1.119229996518486
 30
0.0
  0
VERTEX
  5
24B
330
1DC
100
AcDbEntity
  8
0
100
AcDbVertex
100
AcDb2dVertex
 10
0.2256793165499121
 20
-1.006262058970216
 30
0.0
  0
VERTEX
  5
24C
330
1DC
100
AcDbEntity
  8
0
100
AcDbVertex
100
AcDb2dVertex
 10
0.2389665500670075
 20
-0.8859915693040168
 30
0.0
  0
VERTEX
  5
24D
330
1DC
100
AcDbEntity
  8
0
100
AcDbVertex
100
AcDb2dVertex
 10
0.2602545575778942
 20
-0.6270808584837108
 30
0.0
  0
VERTEX
  5
24E
330
1DC
100
AcDbEntity
  8
0
100
AcDbVertex
100
AcDb2dVertex
 10
0.2740014901583503
 20
-0.35
 30
0.0
  0
VERTEX
  5
24F
330
1DC
100
AcDbEntity
  8
0
100
AcDbVertex
100
AcDb2dVertex
 10
19.0
 20
-0.3500000000000012
 30
0.0
  0
VERTEX
  5
250
330
1DC
100
AcDbEntity
  8
0
100
AcDbVertex
100
AcDb2dVertex
 10
19.0
 20
0.0
 30
0.0
  0
VERTEX
  5
251
330
1DC
100
AcDbEntity
  8
0
100
AcDbVertex
100
AcDb2dVertex
 10
1.75
 20
0.0
 30
0.0
  0
VERTEX
  5
252
330
1DC
100
AcDbEntity
  8
0
100
AcDbVertex
100
AcDb2dVertex
 10
1.75
 20
-0.1000000000000001
 30
0.0
  0
VERTEX
  5
253
330
1DC
100
AcDbEntity
  8
0
100
AcDbVertex
100
AcDb2dVertex
 10
0.1096474349905185
 20
-0.1
 30
0.0
  0
VERTEX
  5
254
330
1DC
100
AcDbEntity
  8
0
100
AcDbVertex
100
AcDb2dVertex
 10
0.1061190297469869
 20
-0.3291046278763479
 30
0.0
  0
VERTEX
  5
255
330
1DC
100
AcDbEntity
  8
0
100
AcDbVertex
100
AcDb2dVertex
 10
0.0989165914386824
 20
-0.5468150572995969
 30
0.0
  0
VERTEX
  5
256
330
1DC
100
AcDbEntity
  8
0
100
AcDbVertex
100
AcDb2dVertex
 10
0.0940107736009424
 20
-0.6490192902533106
 30
0.0
  0
VERTEX
  5
257
330
1DC
100
AcDbEntity
  8
0
100
AcDbVertex
100
AcDb2dVertex
 10
0.0882894815284339
 20
-0.7455937587790041
 30
0.0
  0
VERTEX
  5
258
330
1DC
100
AcDbEntity
  8
0
100
AcDbVertex
100
AcDb2dVertex
 10
0.0818023432169283
 20
-0.8357007504762516
 30
0.0
  0
VERTEX
  5
259
330
1DC
100
AcDbEntity
  8
0
100
AcDbVertex
100
AcDb2dVertex
 10
0.0746056298143778
 20
-0.9185586535436914
 30
0.0
  0
VERTEX
  5
25A
330
1DC
100
AcDbEntity
  8
0
100
AcDbVertex
100
AcDb2dVertex
 10
0.0667617675101436
 20
-0.9934487366858524
 30
0.0
  0
VERTEX
  5
25B
330
1DC
100
AcDbEntity
  8
0
100
AcDbVertex
100
AcDb2dVertex
 10
0.058338796033771
 20
-1.059721383577894
 30
0.0
  0
VERTEX
  5
25C
330
1DC
100
AcDbEntity
  8
0
100
AcDbVertex
100
AcDb2dVertex
 10
0.0494097784604384
 20
-1.11680172780887
 30
0.0
  0
VERTEX
  5
25D
330
1DC
100
AcDbEntity
  8
0
100
AcDbVertex
100
AcDb2dVertex
 10
0.0400521674425807
 20
-1.164194639424527
 30
0.0
  0
VERTEX
  5
25E
330
1DC
100
AcDbEntity
  8
0
100
AcDbVertex
100
AcDb2dVertex
 10
0.0303471333651629
 20
-1.201489019815072
 30
0.0
  0
VERTEX
  5
25F
330
1DC
100
AcDbEntity
  8
0
100
AcDbVertex
100
AcDb2dVertex
 10
0.0203788602523615
 20
-1.228361367692882
 30
0.0
  0
VERTEX
  5
260
330
1DC
100
AcDbEntity
  8
0
100
AcDbVertex
100
AcDb2dVertex
 10
0.0102338155331452
 20
-1.244578585227968
 30
0.0
  0
VERTEX
  5
261
330
1DC
100
AcDbEntity
  8
0
100
AcDbVertex
100
AcDb2dVertex
 10
0.00512246498247
 20
-1.248643910715733
 30
0.0
  0
VERTEX
  5
262
330
1DC
100
AcDbEntity
  8
0
100
AcDbVertex
100
AcDb2dVertex
 10
-0.0000000000000001
 20
-1.249999999999999
 30
0.0
  0
VERTEX
  5
263
330
1DC
100
AcDbEntity
  8
0
100
AcDbVertex
100
AcDb2dVertex
 10
-0.0051224649824701
 20
-1.248643910715733
 30
0.0
  0
VERTEX
  5
264
330
1DC
100
AcDbEntity
  8
0
100
AcDbVertex
100
AcDb2dVertex
 10
-0.0102338155331454
 20
-1.244578585227968
 30
0.0
  0
VERTEX
  5
265
330
1DC
100
AcDbEntity
  8
0
100
AcDbVertex
100
AcDb2dVertex
 10
-0.0203788602523617
 20
-1.228361367692882
 30
0.0
  0
VERTEX
  5
266
330
1DC
100
AcDbEntity
  8
0
100
AcDbVertex
100
AcDb2dVertex
 10
-0.030347133365163
 20
-1.201489019815072
 30
0.0
  0
VERTEX
  5
267
330
1DC
100
AcDbEntity
  8
0
100
AcDbVertex
100
AcDb2dVertex
 10
-0.0400521674425809
 20
-1.164194639424527
 30
0.0
  0
VERTEX
  5
268
330
1DC
100
AcDbEntity
  8
0
100
AcDbVertex
100
AcDb2dVertex
 10
-0.0494097784604386
 20
-1.11680172780887
 30
0.0
  0
VERTEX
  5
269
330
1DC
100
AcDbEntity
  8
0
100
AcDbVertex
100
AcDb2dVertex
 10
-0.0583387960337712
 20
-1.059721383577894
 30
0.0
  0
VERTEX
  5
26A
330
1DC
100
AcDbEntity
  8
0
100
AcDbVertex
100
AcDb2dVertex
 10
-0.0667617675101437
 20
-0.9934487366858524
 30
0.0
  0
VERTEX
  5
26B
330
1DC
100
AcDbEntity
  8
0
100
AcDbVertex
100
AcDb2dVertex
 10
-0.074605629814378
 20
-0.918558653543691
 30
0.0
  0
VERTEX
  5
26C
330
1DC
100
AcDbEntity
  8
0
100
AcDbVertex
100
AcDb2dVertex
 10
-0.0818023432169284
 20
-0.8357007504762513
 30
0.0
  0
VERTEX
  5
26D
330
1DC
100
AcDbEntity
  8
0
100
AcDbVertex
100
AcDb2dVertex
 10
-0.088289481528434
 20
-0.7455937587790039
 30
0.0
  0
VERTEX
  5
26E
330
1DC
100
AcDbEntity
  8
0
100
AcDbVertex
100
AcDb2dVertex
 10
-0.0940107736009424
 20
-0.6490192902533103
 30
0.0
  0
VERTEX
  5
26F
330
1DC
100
AcDbEntity
  8
0
100
AcDbVertex
100
AcDb2dVertex
 10
-0.0989165914386825
 20
-0.5468150572995967
 30
0.0
  0
VERTEX
  5
270
330
1DC
100
AcDbEntity
  8
0
100
AcDbVertex
100
AcDb2dVertex
 10
-0.1061190297469869
 20
-0.3291046278763476
 30
0.0
  0
VERTEX
  5
271
330
1DC
100
AcDbEntity
  8
0
100
AcDbVertex
100
AcDb2dVertex
 10
-0.1096474349905185
 20
-0.1
 30
0.0
  0
VERTEX
  5
272
330
1DC
100
AcDbEntity
  8
0
100
AcDbVertex
100
AcDb2dVertex
 10
-2.0
 20
-0.0999999999999999
 30
0.0
  0
VERTEX
  5
273
330
1DC
100
AcDbEntity
  8
0
100
AcDbVertex
100
AcDb2dVertex
 10
-2.0
 20
-1.25
 30
0.0
  0
VERTEX
  5
274
330
1DC
100
AcDbEntity
  8
0
100
AcDbVertex
100
AcDb2dVertex
 10
-19.0
 20
-1.249999999999999
 30
0.0
  0
VERTEX
  5
275
330
1DC
100
AcDbEntity
  8
0
100
AcDbVertex
100
AcDb2dVertex
 10
-19.0
 20
-1.75
 30
0.0
  0
VERTEX
  5
276
330
1DC
100
AcDbEntity
  8
0
100
AcDbVertex
100
AcDb2dVertex
 10
-2.0
 20
-1.75
 30
0.0
  0
VERTEX
  5
277
330
1DC
100
AcDbEntity
  8
0
100
AcDbVertex
100
AcDb2dVertex
 10
-2.000000000000001
 20
-10.0
 30
0.0
  0
VERTEX
  5
278
330
1DC
100
AcDbEntity
  8
0
100
AcDbVertex
100
AcDb2dVertex
 10
-1.750000000000001
 20
-10.0
 30
0.0
  0
VERTEX
  5
279
330
1DC
100
AcDbEntity
  8
0
100
AcDbVertex
100
AcDb2dVertex
 10
-1.75
 20
-1.25
 30
0.0
  0
SEQEND
  5
27A
330
1DC
100
AcDbEntity
  8
ELECTRODES
  0
ENDSEC
  0
SECTION
  2
OBJECTS
  0
DICTIONARY
  5
C
330
0
100
AcDbDictionary
  3
ACAD_GROUP
350
D
  3
ACAD_LAYOUT
350
1A
  3
ACAD_MATERIAL
350
43
  3
ACAD_MLEADERSTYLE
350
27D
  3
ACAD_MLINESTYLE
350
17
  3
ACAD_PLOTSETTINGS
350
19
  3
ACAD_SCALELIST
350
47
  3
ACAD_VISUALSTYLE
350
2A
  3
ACDBVARIABLEDICTIONARY
350
27B
1001
ACAD
1000
TREAT_AS_HARD
1070
     0
  0
DICTIONARY
  5
D
102
{ACAD_REACTORS
330
C
102
}
330
C
100
AcDbDictionary
1001
ACAD
1000
TREAT_AS_HARD
1070
     0
  0
DICTIONARY
  5
1A
102
{ACAD_REACTORS
330
C
102
}
330
C
100
AcDbDictionary
1001
ACAD
1000
TREAT_AS_HARD
1070
     0
  0
DICTIONARY
  5
43
102
{ACAD_REACTORS
330
C
102
}
330
C
100
AcDbDictionary
  3
BYBLOCK
350
45
  3
BYLAYER
350
44
  3
GLOBAL
350
46
1001
ACAD
1000
TREAT_AS_HARD
1070
     0
  0
DICTIONARY
  5
27D
102
{ACAD_REACTORS
330
C
102
}
330
C
100
AcDbDictionary
1001
ACAD
1000
TREAT_AS_HARD
1070
     0
  0
DICTIONARY
  5
17
102
{ACAD_REACTORS
330
C
102
}
330
C
100
AcDbDictionary
  3
STANDARD
350
18
1001
ACAD
1000
TREAT_AS_HARD
1070
     0
  0
DICTIONARY
  5
19
102
{ACAD_REACTORS
330
C
102
}
330
C
100
AcDbDictionary
1001
ACAD
1000
TREAT_AS_HARD
1070
     0
  0
DICTIONARY
  5
47
102
{ACAD_REACTORS
330
C
102
}
330
C
100
AcDbDictionary
  3
A0
350
48
  3
A1
350
49
  3
A2
350
4A
  3
A3
350
4B
  3
A4
350
4C
  3
A5
350
4D
  3
A6
350
4E
  3
A7
350
4F
  3
A8
350
50
  3
A9
350
51
  3
B0
350
52
  3
B1
350
53
  3
B2
350
54
  3
B3
350
55
  3
B4
350
56
  3
B5
350
57
  3
B6
350
58
  3
B7
350
59
  3
B8
350
5A
  3
B9
350
5B
  3
C0
350
5C
  3
C1
350
5D
  3
C2
350
5E
  3
C3
350
5F
  3
C4
350
60
  3
C5
350
61
  3
C6
350
62
  3
C7
350
63
  3
C8
350
64
  3
C9
350
65
  3
D0
350
66
  3
D1
350
67
  3
D2
350
68
1001
ACAD
1000
TREAT_AS_HARD
1070
     0
  0
DICTIONARY
  5
2A
102
{ACAD_REACTORS
330
C
102
}
330
C
100
AcDbDictionary
  3
2DWIREFRAME
350
2F
  3
BASIC
350
32
  3
BRIGHTEN
350
36
  3
COLORCHANGE
350
3A
  3
CONCEPTUAL
350
34
  3
DIM
350
35
  3
EDGECOLOROFF
350
3D
  3
FACEPATTERN
350
39
  3
FLAT
350
2B
  3
FLATWITHEDGES
350
2C
  3
GOURAUD
350
2D
  3
GOURAUDWITHEDGES
350
2E
  3
HIDDEN
350
31
  3
JITTEROFF
350
3B
  3
LINEPATTERN
350
38
  3
OVERHANGOFF
350
3C
  3
REALISTIC
350
33
  3
SHADED
350
42
  3
SHADED_WITH_EDGES
350
41
  3
SHADES_OF_GRAY
350
3E
  3
SKETCHY
350
3F
  3
THICKEN
350
37
  3
WIREFRAME
350
30
  3
X-RAY
350
40
1001
ACAD
1000
TREAT_AS_HARD
1070
     0
  0
DICTIONARY
  5
27B
102
{ACAD_REACTORS
330
C
102
}
330
C
100
AcDbDictionary
  3
CANNOSCALE
350
282
  3
DIMASSOC
350
280
  3
HIDETEXT
350
281
  3
MSLTSCALE
350
283
1001
ACAD
1000
TREAT_AS_HARD
1070
     0
  0
MATERIAL
  5
45
102
{ACAD_REACTORS
330
43
102
}
102
{ACAD_XDICTIONARY
360
286
102
}
330
43
100
AcDbMaterial
  1
BYBLOCK
  0
MATERIAL
  5
44
102
{ACAD_REACTORS
330
43
102
}
102
{ACAD_XDICTIONARY
360
284
102
}
330
43
100
AcDbMaterial
  1
BYLAYER
  0
MATERIAL
  5
46
102
{ACAD_REACTORS
330
43
102
}
102
{ACAD_XDICTIONARY
360
288
102
}
330
43
100
AcDbMaterial
  1
GLOBAL
  0
MLINESTYLE
  5
18
102
{ACAD_REACTORS
330
17
102
}
330
17
100
AcDbMlineStyle
  2
Standard
 70
     0
  3

 62
   256
 51
90.0
 52
90.0
 71
     2
 49
0.5
 62
   256
  6
BYLAYER
 49
-0.5
 62
   256
  6
BYLAYER
  0
ACAD_PROXY_OBJECT
  5
48
102
{ACAD_REACTORS
330
47
102
}
330
47
100
AcDbZombieObject
 90
      499
 91
      503
 93
       41
310
903313A31580
  0
ACAD_PROXY_OBJECT
  5
49
102
{ACAD_REACTORS
330
47
102
}
330
47
100
AcDbZombieObject
 90
      499
 91
      503
 93
      105
310
903313A324000000000000004000
  0
ACAD_PROXY_OBJECT
  5
4A
102
{ACAD_REACTORS
330
47
102
}
330
47
100
AcDbZombieObject
 90
      499
 91
      503
 93
      105
310
903313A344000000000000104000
  0
ACAD_PROXY_OBJECT
  5
4B
102
{ACAD_REACTORS
330
47
102
}
330
47
100
AcDbZombieObject
 90
      499
 91
      503
 93
      105
310
903313A354000000000000144000
  0
ACAD_PROXY_OBJECT
  5
4C
102
{ACAD_REACTORS
330
47
102
}
330
47
100
AcDbZombieObject
 90
      499
 91
      503
 93
      105
310
903313A384000000000000204000
  0
ACAD_PROXY_OBJECT
  5
4D
102
{ACAD_REACTORS
330
47
102
}
330
47
100
AcDbZombieObject
 90
      499
 91
      503
 93
      113
310
904313A31304000000000000244000
  0
ACAD_PROXY_OBJECT
  5
4E
102
{ACAD_REACTORS
330
47
102
}
330
47
100
AcDbZombieObject
 90
      499
 91
      503
 93
      113
310
904313A31364000000000000304000
  0
ACAD_PROXY_OBJECT
  5
4F
102
{ACAD_REACTORS
330
47
102
}
330
47
100
AcDbZombieObject
 90
      499
 91
      503
 93
      113
310
904313A32304000000000000344000
  0
ACAD_PROXY_OBJECT
  5
50
102
{ACAD_REACTORS
330
47
102
}
330
47
100
AcDbZombieObject
 90
      499
 91
      503
 93
      113
310
904313A333040000000000003E4000
  0
ACAD_PROXY_OBJECT
  5
51
102
{ACAD_REACTORS
330
47
102
}
330
47
100
AcDbZombieObject
 90
      499
 91
      503
 93
      113
310
904313A34304000000000000444000
  0
ACAD_PROXY_OBJECT
  5
52
102
{ACAD_REACTORS
330
47
102
}
330
47
100
AcDbZombieObject
 90
      499
 91
      503
 93
      113
310
904313A35304000000000000494000
  0
ACAD_PROXY_OBJECT
  5
53
102
{ACAD_REACTORS
330
47
102
}
330
47
100
AcDbZombieObject
 90
      499
 91
      503
 93
      121
310
905313A3130304000000000000594000
  0
ACAD_PROXY_OBJECT
  5
54
102
{ACAD_REACTORS
330
47
102
}
330
47
100
AcDbZombieObject
 90
      499
 91
      503
 93
      105
310
903323A310000000000000010100
  0
ACAD_PROXY_OBJECT
  5
55
102
{ACAD_REACTORS
330
47
102
}
330
47
100
AcDbZombieObject
 90
      499
 91
      503
 93
      105
310
903343A310000000000000410100
  0
ACAD_PROXY_OBJECT
  5
56
102
{ACAD_REACTORS
330
47
102
}
330
47
100
AcDbZombieObject
 90
      499
 91
      503
 93
      105
310
903383A310000000000000810100
  0
ACAD_PROXY_OBJECT
  5
57
102
{ACAD_REACTORS
330
47
102
}
330
47
100
AcDbZombieObject
 90
      499
 91
      503
 93
      113
310
90431303A310000000000000910100
  0
ACAD_PROXY_OBJECT
  5
58
102
{ACAD_REACTORS
330
47
102
}
330
47
100
AcDbZombieObject
 90
      499
 91
      503
 93
      121
310
9053130303A310000000000001650100
  0
ACAD_PROXY_OBJECT
  5
59
102
{ACAD_REACTORS
330
47
102
}
330
47
100
AcDbZombieObject
 90
      499
 91
      503
 93
      257
310
90E312F31323822203D2031272D3022000000000000200FC000000000000284000
  0
ACAD_PROXY_OBJECT
  5
5A
102
{ACAD_REACTORS
330
47
102
}
330
47
100
AcDbZombieObject
 90
      499
 91
      503
 93
      249
310
90D312F363422203D2031272D3022000000000000240FC000000000000284000
  0
ACAD_PROXY_OBJECT
  5
5B
102
{ACAD_REACTORS
330
47
102
}
330
47
100
AcDbZombieObject
 90
      499
 91
      503
 93
      249
310
90D312F333222203D2031272D3022000000000000280FC000000000000284000
  0
ACAD_PROXY_OBJECT
  5
5C
102
{ACAD_REACTORS
330
47
102
}
330
47
100
AcDbZombieObject
 90
      499
 91
      503
 93
      249
310
90D312F313622203D2031272D30220000000000002C0FC000000000000284000
  0
ACAD_PROXY_OBJECT
  5
5D
102
{ACAD_REACTORS
330
47
102
}
330
47
100
AcDbZombieObject
 90
      499
 91
      503
 93
      249
310
90D332F333222203D2031272D30220000000000002E0FC000000000000284000
  0
ACAD_PROXY_OBJECT
  5
5E
102
{ACAD_REACTORS
330
47
102
}
330
47
100
AcDbZombieObject
 90
      499
 91
      503
 93
      241
310
90C312F3822203D2031272D3022000000000000300FC000000000000284000
  0
ACAD_PROXY_OBJECT
  5
5F
102
{ACAD_REACTORS
330
47
102
}
330
47
100
AcDbZombieObject
 90
      499
 91
      503
 93
      249
310
90D332F313622203D2031272D3022000000000000320FC000000000000284000
  0
ACAD_PROXY_OBJECT
  5
60
102
{ACAD_REACTORS
330
47
102
}
330
47
100
AcDbZombieObject
 90
      499
 91
      503
 93
      241
310
90C312F3422203D2031272D3022000000000000340FC000000000000284000
  0
ACAD_PROXY_OBJECT
  5
61
102
{ACAD_REACTORS
330
47
102
}
330
47
100
AcDbZombieObject
 90
      499
 91
      503
 93
      241
310
90C332F3822203D2031272D3022000000000000360FC000000000000284000
  0
ACAD_PROXY_OBJECT
  5
62
102
{ACAD_REACTORS
330
47
102
}
330
47
100
AcDbZombieObject
 90
      499
 91
      503
 93
      241
310
90C312F3222203D2031272D3022000000000000380FC000000000000284000
  0
ACAD_PROXY_OBJECT
  5
63
102
{ACAD_REACTORS
330
47
102
}
330
47
100
AcDbZombieObject
 90
      499
 91
      503
 93
      241
310
90C332F3422203D2031272D30220000000000003A0FC000000000000284000
  0
ACAD_PROXY_OBJECT
  5
64
102
{ACAD_REACTORS
330
47
102
}
330
47
100
AcDbZombieObject
 90
      499
 91
      503
 93
      161
310
90A3122203D2031272D30224000000000000284000
  0
ACAD_PROXY_OBJECT
  5
65
102
{ACAD_REACTORS
330
47
102
}
330
47
100
AcDbZombieObject
 90
      499
 91
      503
 93
      257
310
90E312D312F3222203D2031272D30220000000000003E0FC000000000000284000
  0
ACAD_PROXY_OBJECT
  5
66
102
{ACAD_REACTORS
330
47
102
}
330
47
100
AcDbZombieObject
 90
      499
 91
      503
 93
      225
310
90A3322203D2031272D302200000000000002100000000000000284000
  0
ACAD_PROXY_OBJECT
  5
67
102
{ACAD_REACTORS
330
47
102
}
330
47
100
AcDbZombieObject
 90
      499
 91
      503
 93
      225
310
90A3622203D2031272D302200000000000006100000000000000284000
  0
ACAD_PROXY_OBJECT
  5
68
102
{ACAD_REACTORS
330
47
102
}
330
47
100
AcDbZombieObject
 90
      499
 91
      503
 93
      249
310
90D31272D3022203D2031272D30220000000000000A100000000000000284000
  0
ACAD_PROXY_OBJECT
  5
2F
102
{ACAD_REACTORS
330
2A
102
}
330
2A
100
AcDbZombieObject
 90
      499
 91
      501
 93
      436
310
42CC9915DA5C99599C985B595049028333333333333E33F0000000000000F90107901411070040501600405405064090741402480A0340
1001
ACAD
1000
AcDbSavedByObjectVersion
1070
     0
  0
ACAD_PROXY_OBJECT
  5
32
102
{ACAD_REACTORS
330
2A
102
}
330
2A
100
AcDbZombieObject
 90
      499
 91
      501
 93
      388
310
4150985CDA58D07406404333333333333E33F0000000000000F90107A41107004050150841D405064090741402480A0350
1001
ACAD
1000
AcDbSavedByObjectVersion
1070
     0
  0
ACAD_PROXY_OBJECT
  5
36
102
{ACAD_REACTORS
330
2A
102
}
330
2A
100
AcDbZombieObject
 90
      499
 91
      501
 93
      428
310
42109C9A59DA1D195B90C409028333333333333E33F0000000000000F9010790141107004050150841D405064090741402480A029950
1001
ACAD
1000
AcDbSavedByObjectVersion
1070
     0
  0
ACAD_PROXY_OBJECT
  5
3A
102
{ACAD_REACTORS
330
2A
102
}
330
2A
100
AcDbZombieObject
 90
      499
 91
      501
 93
      452
310
42D0DBDB1BDC90DA185B99D95104090240C333333333333E33F0000000000000F90108901411070040501508421405064090741402480A0350
1001
ACAD
1000
AcDbSavedByObjectVersion
1070
     0
  0
ACAD_PROXY_OBJECT
  5
34
102
{ACAD_REACTORS
330
2A
102
}
330
2A
100
AcDbZombieObject
 90
      499
 91
      501
 93
      500
310
4290DBDB98D95C1D1D585B10940D028333333333333E33F0000000000000F90107902409070040501000000000018199010841D405064090740C02480A0340
1001
ACAD
1000
AcDbSavedByObjectVersion
1070
     0
  0
ACAD_PROXY_OBJECT
  5
35
102
{ACAD_REACTORS
330
2A
102
}
330
2A
100
AcDbZombieObject
 90
      499
 91
      501
 93
      412
310
40D11A5B50B409028333333333333E33F0000000000000F9010790141107004050150841D405064090741402480A02677FFFFFD0
1001
ACAD
1000
AcDbSavedByObjectVersion
1070
     0
  0
ACAD_PROXY_OBJECT
  5
3D
102
{ACAD_REACTORS
330
2A
102
}
330
2A
100
AcDbZombieObject
 90
      499
 91
      501
 93
      452
310
43115919D950DBDB1BDC93D999916409028333333333333E33F0000000000000F9010790141107004050150841D405064090741402480A0350
1001
ACAD
1000
AcDbSavedByObjectVersion
1070
     0
  0
ACAD_PROXY_OBJECT
  5
39
102
{ACAD_REACTORS
330
2A
102
}
330
2A
100
AcDbZombieObject
 90
      499
 91
      501
 93
      444
310
42D19858D95C185D1D195C9B90F409028333333333333E33F0000000000000F9010790141107004050150841D405064090741402480A0350
1001
ACAD
1000
AcDbSavedByObjectVersion
1070
     0
  0
ACAD_PROXY_OBJECT
  5
2B
102
{ACAD_REACTORS
330
2A
102
}
330
2A
100
AcDbZombieObject
 90
      499
 91
      501
 93
      380
310
41119B185D240901404333333333333E33F0000000000000F9010740A907004050150841D405064090741402480A1B50
1001
ACAD
1000
AcDbSavedByObjectVersion
1070
     0
  0
ACAD_PROXY_OBJECT
  5
2C
102
{ACAD_REACTORS
330
2A
102
}
330
2A
100
AcDbZombieObject
 90
      499
 91
      501
 93
      468
310
43519B185D15DA5D1A115919D95CD0140901404333333333333E33F0000000000000F90107409019070040501600405405064090741402480A1B50
1001
ACAD
1000
AcDbSavedByObjectVersion
1070
     0
  0
ACAD_PROXY_OBJECT
  5
2D
102
{ACAD_REACTORS
330
2A
102
}
330
2A
100
AcDbZombieObject
 90
      499
 91
      501
 93
      404
310
41D1DBDD5C985D5910240902404333333333333E33F0000000000000F9010740A9070040501641D405064090741402480A1B50
1001
ACAD
1000
AcDbSavedByObjectVersion
1070
     0
  0
ACAD_PROXY_OBJECT
  5
2E
102
{ACAD_REACTORS
330
2A
102
}
330
2A
100
AcDbZombieObject
 90
      499
 91
      501
 93
      492
310
4411DBDD5C985D5915DA5D1A115919D95CD0340902404333333333333E33F0000000000000F90107409019070040501600405405064090741402480A1B50
1001
ACAD
1000
AcDbSavedByObjectVersion
1070
     0
  0
ACAD_PROXY_OBJECT
  5
31
102
{ACAD_REACTORS
330
2A
102
}
330
2A
100
AcDbZombieObject
 90
      499
 91
      501
 93
      476
310
41921A5919195B90640502408333333333333E33F0000000000000F901079024090700405020000000000001110200405405064090740C02480A0340
1001
ACAD
1000
AcDbSavedByObjectVersion
1070
     0
  0
ACAD_PROXY_OBJECT
  5
3B
102
{ACAD_REACTORS
330
2A
102
}
330
2A
100
AcDbZombieObject
 90
      499
 91
      501
 93
      428
310
42529A5D1D195C93D999914409028333333333333E33F0000000000000F9010790141107004050150A41D405064090741402480A0350
1001
ACAD
1000
AcDbSavedByObjectVersion
1070
     0
  0
ACAD_PROXY_OBJECT
  5
38
102
{ACAD_REACTORS
330
2A
102
}
330
2A
100
AcDbZombieObject
 90
      499
 91
      501
 93
      444
310
42D31A5B995C185D1D195C9B90E409028333333333333E33F0000000000000F9010790141107004050750841D405064090741402483A0350
1001
ACAD
1000
AcDbSavedByObjectVersion
1070
     0
  0
ACAD_PROXY_OBJECT
  5
3C
102
{ACAD_REACTORS
330
2A
102
}
330
2A
100
AcDbZombieObject
 90
      499
 91
      501
 93
      444
310
42D3DD995C9A185B99D3D999915409028333333333333E33F0000000000000F9010790141107004050150941D405064090741402480A0350
1001
ACAD
1000
AcDbSavedByObjectVersion
1070
     0
  0
ACAD_PROXY_OBJECT
  5
33
102
{ACAD_REACTORS
330
2A
102
}
330
2A
100
AcDbZombieObject
 90
      499
 91
      501
 93
      428
310
425499585B1A5CDD1A58D08409038333333333333E33F0000000000000F9010740A907004050150800405405064090740C02480A1B40
1001
ACAD
1000
AcDbSavedByObjectVersion
1070
     0
  0
ACAD_PROXY_OBJECT
  5
42
102
{ACAD_REACTORS
330
2A
102
}
330
2A
100
AcDbZombieObject
 90
      499
 91
      501
 93
      420
310
4194DA1859195911B40902404333333333333E33F0000000000000F9010740A41107004050150800405405064090840C02480A0B40
1001
ACAD
1000
AcDbSavedByObjectVersion
1070
     0
  0
ACAD_PROXY_OBJECT
  5
41
102
{ACAD_REACTORS
330
2A
102
}
330
2A
100
AcDbZombieObject
 90
      499
 91
      501
 93
      516
310
4454DA18591959081DDA5D1A08195919D95CD1A40902404333333333333E33F0000000000000F901074090142907004050250800405405064090740C02480A0B40
1001
ACAD
1000
AcDbSavedByObjectVersion
1070
     0
  0
ACAD_PROXY_OBJECT
  5
3E
102
{ACAD_REACTORS
330
2A
102
}
330
2A
100
AcDbZombieObject
 90
      499
 91
      501
 93
      532
310
4394DA1859195CC81BD98811DC985E5174090240C333333333333E33F0000000000000F901079024090741D01000000000000111010841D405064090740C02480A0340
1001
ACAD
1000
AcDbSavedByObjectVersion
1070
     0
  0
ACAD_PROXY_OBJECT
  5
3F
102
{ACAD_REACTORS
330
2A
102
}
330
2A
100
AcDbZombieObject
 90
      499
 91
      501
 93
      476
310
41D4DAD95D18DA1E51840502408333333333333E33F0000000000000F901079024090741D01000000000000111010B41D405064090741802480A0340
1001
ACAD
1000
AcDbSavedByObjectVersion
1070
     0
  0
ACAD_PROXY_OBJECT
  5
37
102
{ACAD_REACTORS
330
2A
102
}
330
2A
100
AcDbZombieObject
 90
      499
 91
      501
 93
      412
310
41D51A1A58DAD95B90D409028333333333333E33F0000000000000F9010790141107004050150C41D405064090741402480A0350
1001
ACAD
1000
AcDbSavedByObjectVersion
1070
     0
  0
ACAD_PROXY_OBJECT
  5
30
102
{ACAD_REACTORS
330
2A
102
}
330
2A
100
AcDbZombieObject
 90
      499
 91
      501
 93
      420
310
4255DA5C99599C985B595059028333333333333E33F0000000000000F90107901411070040501600405405064090740C02480A0340
1001
ACAD
1000
AcDbSavedByObjectVersion
1070
     0
  0
ACAD_PROXY_OBJECT
  5
40
102
{ACAD_REACTORS
330
2A
102
}
330
2A
100
AcDbZombieObject
 90
      499
 91
      501
 93
      404
310
41560B54985E51940902404000000000000E03F0000000000000F9010740501907004050150841D405064090740C02480A1B40
1001
ACAD
1000
AcDbSavedByObjectVersion
1070
     0
  0
DICTIONARYVAR
  5
282
102
{ACAD_REACTORS
330
27B
102
}
330
27B
100
DictionaryVariables
280
     0
  1
1:1
  0
DICTIONARYVAR
  5
280
102
{ACAD_REACTORS
330
27B
102
}
330
27B
100
DictionaryVariables
280
     0
  1
2
  0
DICTIONARYVAR
  5
281
102
{ACAD_REACTORS
330
27B
102
}
330
27B
100
DictionaryVariables
280
     0
  1
1
  0
DICTIONARYVAR
  5
283
102
{ACAD_REACTORS
330
27B
102
}
330
27B
100
DictionaryVariables
280
     0
  1
1
  0
DICTIONARY
  5
286
330
45
100
AcDbDictionary
  3
ACAD_XREC_ROUNDTRIP
360
287
1001
ACAD
1000
TREAT_AS_HARD
1070
     1
  0
DICTIONARY
  5
284
330
44
100
AcDbDictionary
  3
ACAD_XREC_ROUNDTRIP
360
285
1001
ACAD
1000
TREAT_AS_HARD
1070
     1
  0
DICTIONARY
  5
288
330
46
100
AcDbDictionary
  3
ACAD_XREC_ROUNDTRIP
360
289
1001
ACAD
1000
TREAT_AS_HARD
1070
     1
  0
XRECORD
  5
287
102
{ACAD_REACTORS
330
286
102
}
330
286
100
AcDbXrecord
102
MATERIAL
148
0.0
149
0.0
149
0.0
 93
        0
 94
      127
282
     0
 72
     1
 77
     1
171
     1
175
     1
179
     1
273
     0
  0
XRECORD
  5
285
102
{ACAD_REACTORS
330
284
102
}
330
284
100
AcDbXrecord
102
MATERIAL
148
0.0
149
0.0
149
0.0
 93
        0
 94
      127
282
     0
 72
     1
 77
     1
171
     1
175
     1
179
     1
273
     0
  0
XRECORD
  5
289
102
{ACAD_REACTORS
330
288
102
}
330
288
100
AcDbXrecord
102
MATERIAL
148
0.0
149
0.0
149
0.0
 93
        0
 94
      127
282
     0
 72
     1
 77
     1
171
     1
175
     1
179
     1
273
     0
  0
ENDSEC
  0
EOF
